<svg xmlns="http://www.w3.org/2000/svg" width="95.251" height="95.251" viewBox="0 0 95.251 95.251">
  <g id="Group_3256" data-name="Group 3256" transform="translate(-815 -144)">
    <g id="Group_525" data-name="Group 525" transform="translate(815 144)">
      <ellipse id="Ellipse_16" data-name="Ellipse 16" cx="47.626" cy="47.626" rx="47.626" ry="47.626" transform="translate(0)" fill="#fff"/>
    </g>
    <g id="Group_2862" data-name="Group 2862" transform="translate(777 137.042)">
      <path id="Path_13298" data-name="Path 13298" d="M272,104h1.833v1.833H272Z" transform="translate(-184.167 -70.833)"/>
      <path id="Path_13299" data-name="Path 13299" d="M320,104h1.833v1.833H320Z" transform="translate(-226.667 -70.833)"/>
      <path id="Path_13300" data-name="Path 13300" d="M102.5,76.25V73.5h.917A4.589,4.589,0,0,0,108,68.917V55.167a8.683,8.683,0,0,0-3.031-6.738A10.961,10.961,0,0,0,97.835,46H95.167V43.628a6.2,6.2,0,0,0,3.667-5.649V27.667A3.671,3.671,0,0,0,95.167,24H87.833a3.671,3.671,0,0,0-3.655,3.392,6.787,6.787,0,0,0-3.524,2.516.917.917,0,0,0,.763,1.426h2.75v6.646a6.2,6.2,0,0,0,3.667,5.649V46H82.1A7.112,7.112,0,0,0,75,53.1V57H68.583a.917.917,0,0,0-.917.917v8.25H66.75A2.753,2.753,0,0,0,64,68.917v2.75a2.753,2.753,0,0,0,2.75,2.75h.917V76.25a.917.917,0,0,0,.917.917h30.25a.917.917,0,0,0,.917-.917V73.5h.917v2.75Zm.917-4.583H89.181a1.349,1.349,0,0,1-1.348-1.348v-.971A1.349,1.349,0,0,1,89.181,68h3.236a.917.917,0,0,0,.763-1.425L92.3,65.25h.547L94.4,67.592a.917.917,0,0,0,.763.408h5.5v.022H102.5V59.75h3.667v9.167a2.753,2.753,0,0,1-2.75,2.75ZM87.833,47.833h.458l1.035,1.381-1.494-.3Zm6.875,0h.458v1.082l-1.494.3Zm-6.875-22h7.333A1.835,1.835,0,0,1,97,27.667v1.326a25.667,25.667,0,0,0-9.167-2.242,11.467,11.467,0,0,0-1.664.151A1.834,1.834,0,0,1,87.833,25.833Zm0,2.75a18.545,18.545,0,0,1,5.219.917H83.872A10.184,10.184,0,0,1,87.833,28.583ZM86,37.979V31.333H97v6.646a4.359,4.359,0,0,1-4.354,4.354H90.354A4.359,4.359,0,0,1,86,37.979Zm4.354,6.188h2.292a6.236,6.236,0,0,0,.688-.039v2.484L91.5,49.056l-1.833-2.444V44.128a6.236,6.236,0,0,0,.688.039ZM76.833,53.1A5.277,5.277,0,0,1,82.1,47.833H86v1.833a.917.917,0,0,0,.737.9s4.7.934,4.763.934,4.763-.934,4.763-.934a.917.917,0,0,0,.737-.9V47.833h.835c4.905,0,8.331,3.015,8.331,7.333v2.75H102.5V54.272h-1.833V66.167H99.75v-8.25A.917.917,0,0,0,98.833,57h-16.5V53.333H80.5V57H76.833Zm6.417,5.729V62.5H69.5V58.833Zm0,10.083H69.5V64.333H83.25Zm-16.5,3.667a.918.918,0,0,1-.917-.917v-2.75A.918.918,0,0,1,66.75,68h.917v4.583ZM69.5,70.75H83.25v4.583H69.5Zm28.417,4.583H85.083v-11h2.75V62.5h-2.75V58.833H97.917v7.333H95.657L94.1,63.825a.917.917,0,0,0-.763-.408h-2.75a.917.917,0,0,0-.763,1.425l.883,1.325H89.181A3.185,3.185,0,0,0,86,69.348v.971A3.185,3.185,0,0,0,89.181,73.5h8.736Z" transform="translate(0 0)"/>
      <path id="Path_13301" data-name="Path 13301" d="M288,336h2.75v1.833H288Z" transform="translate(-198.333 -276.25)"/>
      <path id="Path_13302" data-name="Path 13302" d="M320,336h2.75v1.833H320Z" transform="translate(-226.667 -276.25)"/>
      <path id="Path_13303" data-name="Path 13303" d="M285.5,144h-1.833a.917.917,0,1,1-1.833,0H280a2.75,2.75,0,0,0,5.5,0Z" transform="translate(-191.25 -106.25)"/>
      <rect id="Rectangle_4957" data-name="Rectangle 4957" width="14" height="5" transform="translate(69 57.959)" fill="#f8d00d"/>
      <rect id="Rectangle_4958" data-name="Rectangle 4958" width="14" height="4" transform="translate(69 64.959)" fill="#f8d00d"/>
      <rect id="Rectangle_4959" data-name="Rectangle 4959" width="14" height="4" transform="translate(69 70.959)" fill="#f8d00d"/>
      <path id="Path_13304" data-name="Path 13304" d="M260.833,344.5H248v-11h2.75v-1.833H248V328h12.833v7.333h-2.259l-1.561-2.342a.917.917,0,0,0-.763-.408H253.5a.917.917,0,0,0-.763,1.425l.883,1.325H252.1a3.185,3.185,0,0,0-3.181,3.181v.971a3.185,3.185,0,0,0,3.181,3.181h8.736Z" transform="translate(-162.917 -269.167)" fill="#f8d00d"/>
    </g>
  </g>
</svg>
