<svg id="Group_525" data-name="Group 525" xmlns="http://www.w3.org/2000/svg" width="95.251" height="95.251" viewBox="0 0 95.251 95.251">
  <ellipse id="Ellipse_16" data-name="Ellipse 16" cx="47.626" cy="47.626" rx="47.626" ry="47.626" transform="translate(0)" fill="#fff"/>
  <g id="Group_2863" data-name="Group 2863" transform="translate(683.906 -397.597)">
    <rect id="Rectangle_4960" data-name="Rectangle 4960" width="6.353" height="20.066" transform="translate(-659.733 444.812)" fill="#f8d00d"/>
    <g id="Group_2852" data-name="Group 2852" transform="translate(-660.906 424.24)">
      <path id="Path_13305" data-name="Path 13305" d="M-323.595,428.026l-8.349-3.478a4.056,4.056,0,0,0-3.1,0l-4.009,1.67a.985.985,0,0,0-.53,1.287.977.977,0,0,0,.533.532.978.978,0,0,0,.753,0l4.009-1.67a2.074,2.074,0,0,1,1.585,0l8.348,3.478a1.84,1.84,0,0,1,1.164,1.681v30.055a1.9,1.9,0,0,1-1.956,1.838h-1.139a.985.985,0,0,0-.984.984.985.985,0,0,0,.984.984h1.139a3.871,3.871,0,0,0,3.924-3.806V431.523A3.8,3.8,0,0,0-323.595,428.026Z" transform="translate(369.758 -424.24)"/>
      <path id="Path_13306" data-name="Path 13306" d="M-620.495,494.146h-11.254a3.3,3.3,0,0,0,.479-1.715,3.3,3.3,0,0,0-.576-1.861,3.314,3.314,0,0,0,.55-.443,3.283,3.283,0,0,0,.967-2.336,3.3,3.3,0,0,0-.63-1.938,3.28,3.28,0,0,0,.434-.365,3.281,3.281,0,0,0,.968-2.336,3.3,3.3,0,0,0-.626-1.933,3.335,3.335,0,0,0,.445-.373,3.286,3.286,0,0,0,.967-2.336,3.308,3.308,0,0,0-3.3-3.3h-2.87V462.252a1.84,1.84,0,0,1,1.163-1.681l1.278-.532a.985.985,0,0,0,.53-1.286.978.978,0,0,0-.533-.532.976.976,0,0,0-.753,0l-1.279.533a3.8,3.8,0,0,0-2.374,3.5V475.2h-2.276a16.746,16.746,0,0,0-.357-9.859,2.994,2.994,0,0,0-1.1-1.549,3.023,3.023,0,0,0-1.8-.589,3.007,3.007,0,0,0-2.2.945,3.006,3.006,0,0,0-.829,2.246c.212,4.076-1.589,5.419-4.315,7.453-.734.547-1.549,1.156-2.364,1.869v-.289a.985.985,0,0,0-.984-.984h-6.784a.985.985,0,0,0-.984.984v19.931a.985.985,0,0,0,.984.984h6.784a.985.985,0,0,0,.984-.984v-1.455a5.332,5.332,0,0,1,2.8,1.03,3.854,3.854,0,0,0,2.329.8h12.331a4.042,4.042,0,0,0,1.7.378h12.494a.985.985,0,0,0,.984-.984A.985.985,0,0,0-620.495,494.146Zm-32.643-11.152a.985.985,0,0,0-.984.984v10.4h-4.816V476.417h4.816v4.5a.985.985,0,0,0,.984.984.985.985,0,0,0,.984-.984V478.46a24.278,24.278,0,0,1,3.541-3.03c2.761-2.061,5.37-4.007,5.1-9.133a1.055,1.055,0,0,1,.292-.789,1.056,1.056,0,0,1,.773-.332,1.065,1.065,0,0,1,.635.208,1.038,1.038,0,0,1,.382.537,14.484,14.484,0,0,1-.05,9.91.983.983,0,0,0,.1.913.983.983,0,0,0,.813.429h8.487a1.338,1.338,0,0,1,1.336,1.337,1.329,1.329,0,0,1-.39.944,1.331,1.331,0,0,1-.946.392h-2.887a.985.985,0,0,0-.984.984.985.985,0,0,0,.984.984h2.1a1.338,1.338,0,0,1,1.336,1.337,1.327,1.327,0,0,1-.391.945,1.327,1.327,0,0,1-.945.391h-2.1a.985.985,0,0,0-.984.984.985.985,0,0,0,.984.984h1.329a1.338,1.338,0,0,1,1.336,1.336,1.328,1.328,0,0,1-.391.945,1.328,1.328,0,0,1-.945.392h-2.1a.985.985,0,0,0-.984.984.985.985,0,0,0,.984.984h1.16a1.338,1.338,0,0,1,1.336,1.336,1.33,1.33,0,0,1-.39.945,1.438,1.438,0,0,1-.877.39l-12.515,0a1.878,1.878,0,0,1-1.133-.392h0a7.538,7.538,0,0,0-4-1.449v-7.95A.985.985,0,0,0-653.138,482.994Z" transform="translate(660.906 -454.969)"/>
      <path id="Path_13307" data-name="Path 13307" d="M-301.059,476.673a2.963,2.963,0,0,0-2.959-2.959,2.963,2.963,0,0,0-2.959,2.959,2.963,2.963,0,0,0,2.959,2.959A2.963,2.963,0,0,0-301.059,476.673Zm-3.951,0a.993.993,0,0,1,.992-.992.993.993,0,0,1,.992.992.993.993,0,0,1-.992.992A.993.993,0,0,1-305.01,476.673Z" transform="translate(340.142 -469.078)"/>
      <path id="Path_13308" data-name="Path 13308" d="M-302.389,623.33v1.393a2.352,2.352,0,0,0,1.629,2.243l3.174,1.031a.39.39,0,0,1,.27.371v.973a.916.916,0,0,1-.271.652.917.917,0,0,1-.652.271h-1.26a.924.924,0,0,1-.923-.923.985.985,0,0,0-.984-.984.985.985,0,0,0-.984.984,2.913,2.913,0,0,0,2.537,2.868V633.5a.985.985,0,0,0,.984.984.985.985,0,0,0,.984-.984v-1.295a2.913,2.913,0,0,0,2.537-2.868v-.973a2.352,2.352,0,0,0-1.63-2.243l-3.175-1.031a.39.39,0,0,1-.27-.371V623.33a.7.7,0,0,1,.7-.7h1.713a.7.7,0,0,1,.7.7.985.985,0,0,0,.984.984.985.985,0,0,0,.984-.984,2.668,2.668,0,0,0-2.537-2.662v-1.275a.985.985,0,0,0-.984-.984.985.985,0,0,0-.984.984v1.275A2.668,2.668,0,0,0-302.389,623.33Z" transform="translate(335.983 -600.215)" fill="#f8d00d"/>
    </g>
  </g>
</svg>
