<svg xmlns="http://www.w3.org/2000/svg" width="85.3" height="85.3" viewBox="0 0 85.3 85.3">
  <g id="Group_525" data-name="Group 525" transform="translate(-165 -4321)">
    <circle id="Ellipse_16" data-name="Ellipse 16" cx="42.65" cy="42.65" r="42.65" transform="translate(165 4321)" fill="#fff"/>
    <g id="Group_467" data-name="Group 467" transform="translate(185.698 4337.902)">
      <circle id="Ellipse_15" data-name="Ellipse 15" cx="11.536" cy="11.536" r="11.536" transform="translate(14.402 11.728)" fill="#f8d00d"/>
      <g id="Group_466" data-name="Group 466" transform="translate(0)">
        <path id="Path_201" data-name="Path 201" d="M-309.7-336.612a45.071,45.071,0,0,1-16.809-3.237l-.307-.123-.306.123a45.074,45.074,0,0,1-16.81,3.237h-1.837v17.3h-4.12a2.475,2.475,0,0,0-2.472,2.472v14.009a2.475,2.475,0,0,0,2.472,2.472h7.42a21.393,21.393,0,0,0,7.859,7.4l7.794,4.251,7.794-4.251a21.4,21.4,0,0,0,11.159-18.8v-24.86Zm-41.013,33.785v-14.009a.825.825,0,0,1,.824-.824h7.416a.825.825,0,0,1,.824.824v14.009a.825.825,0,0,1-.824.824h-7.416A.825.825,0,0,1-350.717-302.827ZM-340-315.195a5.237,5.237,0,0,0,4.944-5.223v-4.246a2.063,2.063,0,0,1,2.06-2.06,2.062,2.062,0,0,1,2.06,2.06v5.186a2.645,2.645,0,0,0,2.642,2.642h6.041a2.857,2.857,0,0,1,2.854,2.854v9.125A2.857,2.857,0,0,1-322.257-302H-334.4a1.95,1.95,0,0,1-1.624-.869,3.593,3.593,0,0,0-3-1.6H-340v-10.72Zm30.489,3.442a19.753,19.753,0,0,1-10.3,17.351l-7.005,3.821-7.005-3.821a19.763,19.763,0,0,1-7.071-6.54,2.455,2.455,0,0,0,.875-1.722,18.038,18.038,0,0,0,6.985,6.816l6.216,3.391,6.216-3.391a18.1,18.1,0,0,0,9.441-15.9v-12.5h-1.648v12.5a16.457,16.457,0,0,1-8.582,14.456l-5.427,2.96-5.427-2.96a16.4,16.4,0,0,1-5.739-5.222,1.935,1.935,0,0,1,.592.56,3.593,3.593,0,0,0,3,1.6h12.141a4.507,4.507,0,0,0,4.5-4.5v-9.125a4.507,4.507,0,0,0-4.5-4.5H-328.3a1,1,0,0,1-.994-.994v-5.186A3.713,3.713,0,0,0-333-328.372a3.713,3.713,0,0,0-3.708,3.708v4.245a3.575,3.575,0,0,1-3.3,3.554,2.456,2.456,0,0,0-.821-1.8v-13.1a49.962,49.962,0,0,0,14.009-2.912,49.971,49.971,0,0,0,14.009,2.912v.919h1.648v-2.487l-.786-.036a48.35,48.35,0,0,1-14.585-2.958l-.286-.106-.286.105a48.361,48.361,0,0,1-14.585,2.958l-.786.037v14.023h-1.648v-15.657h.189A46.7,46.7,0,0,0-326.82-338.2a46.7,46.7,0,0,0,17.116,3.234h.189v23.211Z" transform="translate(352.365 339.972)"/>
        <rect id="Rectangle_4940" data-name="Rectangle 4940" width="1.648" height="1.648" transform="translate(39.554 12.424)"/>
        <rect id="Rectangle_4941" data-name="Rectangle 4941" width="5.768" height="1.648" transform="translate(3.296 34.673)"/>
      </g>
    </g>
  </g>
</svg>
