<?xml version="1.0" encoding="UTF-8" standalone="no"?>
<!DOCTYPE svg PUBLIC "-//W3C//DTD SVG 1.1//EN" "http://www.w3.org/Graphics/SVG/1.1/DTD/svg11.dtd">
<svg version="1.1" xmlns="http://www.w3.org/2000/svg" xmlns:xlink="http://www.w3.org/1999/xlink" preserveAspectRatio="xMidYMid meet" viewBox="51.43610503282279 51.160570789843824 55.11708719061334 68.72942921015618" width="51.12" height="64.73"><defs><path d="M77.74 106.73C67.81 106.73 59.77 98.73 59.77 88.85C59.77 78.98 67.81 70.97 77.74 70.97C87.66 70.97 95.71 78.98 95.71 88.85C95.71 98.73 87.66 106.73 77.74 106.73Z" id="a5Gb6hanR9"></path><path d="M77.74 106.73C67.81 106.73 59.77 98.73 59.77 88.85C59.77 78.98 67.81 70.97 77.74 70.97C87.66 70.97 95.71 78.98 95.71 88.85C95.71 98.73 87.66 106.73 77.74 106.73Z" id="dqUPrUkHn"></path><path d="M91.16 58.02C91.16 57.18 90.23 56.79 89.38 56.79C88.92 56.79 85.26 56.79 84.81 56.79C83.8 53.9 80.99 52.01 77.91 52.17C74.85 52.05 72.06 53.92 71.03 56.79C70.58 56.79 66.98 56.79 66.54 56.79C65.68 56.79 64.83 57.18 64.83 58.02C64.83 58.2 64.83 59.07 64.83 60.64C61.3 60.64 59.34 60.64 58.95 60.64C55.45 60.68 52.61 63.42 52.44 66.88C52.44 71.3 52.44 106.62 52.44 111.03C52.44 114.42 55.54 116.89 58.95 116.89C62.76 116.89 93.23 116.89 97.04 116.89C100.45 116.89 103.55 114.42 103.55 111.03C103.55 106.62 103.55 71.3 103.55 66.88C103.38 63.42 100.53 60.68 97.04 60.64C96.26 60.64 94.3 60.64 91.16 60.64C91.16 59.07 91.16 58.2 91.16 58.02ZM72.19 59.87C72.93 59.78 73.52 59.22 73.66 58.49C74.12 56.5 75.86 55.07 77.91 55.02C79.94 55.08 81.67 56.51 82.1 58.49C82.24 59.24 82.88 59.81 83.65 59.87C83.94 59.87 85.41 59.87 88.07 59.87C88.07 60.28 88.07 62.34 88.07 66.04L67.92 66.04L67.92 59.87C70.58 59.87 72 59.87 72.19 59.87ZM58.95 113.81C57.24 113.81 55.54 112.73 55.54 111.03C55.54 106.62 55.54 71.3 55.54 66.88C55.69 65.12 57.16 63.76 58.95 63.73C59.34 63.73 61.3 63.73 64.83 63.73C64.83 66.08 64.83 67.39 64.83 67.66C64.91 68.52 65.66 69.17 66.54 69.12C68.82 69.12 87.09 69.12 89.38 69.12C90.27 69.17 91.04 68.53 91.16 67.66C91.16 67.39 91.16 66.08 91.16 63.73C94.69 63.73 96.65 63.73 97.04 63.73C98.83 63.76 100.3 65.12 100.45 66.88C100.45 69.83 100.45 84.54 100.45 111.03C99.31 112.88 98.18 113.81 97.04 113.81C93.23 113.81 62.76 113.81 58.95 113.81Z" id="joqA1b7Qf"></path><path d="M91.16 58.02C91.16 57.18 90.23 56.79 89.38 56.79C88.92 56.79 85.26 56.79 84.81 56.79C83.8 53.9 80.99 52.01 77.91 52.17C74.85 52.05 72.06 53.92 71.03 56.79C70.58 56.79 66.98 56.79 66.54 56.79C65.68 56.79 64.83 57.18 64.83 58.02C64.83 58.2 64.83 59.07 64.83 60.64C61.3 60.64 59.34 60.64 58.95 60.64C55.45 60.68 52.61 63.42 52.44 66.88C52.44 71.3 52.44 106.62 52.44 111.03C52.44 114.42 55.54 116.89 58.95 116.89C62.76 116.89 93.23 116.89 97.04 116.89C100.45 116.89 103.55 114.42 103.55 111.03C103.55 106.62 103.55 71.3 103.55 66.88C103.38 63.42 100.53 60.68 97.04 60.64C96.26 60.64 94.3 60.64 91.16 60.64C91.16 59.07 91.16 58.2 91.16 58.02ZM72.19 59.87C72.93 59.78 73.52 59.22 73.66 58.49C74.12 56.5 75.86 55.07 77.91 55.02C79.94 55.08 81.67 56.51 82.1 58.49C82.24 59.24 82.88 59.81 83.65 59.87C83.94 59.87 85.41 59.87 88.07 59.87C88.07 60.28 88.07 62.34 88.07 66.04L67.92 66.04L67.92 59.87C70.58 59.87 72 59.87 72.19 59.87ZM58.95 113.81C57.24 113.81 55.54 112.73 55.54 111.03C55.54 106.62 55.54 71.3 55.54 66.88C55.69 65.12 57.16 63.76 58.95 63.73C59.34 63.73 61.3 63.73 64.83 63.73C64.83 66.08 64.83 67.39 64.83 67.66C64.91 68.52 65.66 69.17 66.54 69.12C68.82 69.12 87.09 69.12 89.38 69.12C90.27 69.17 91.04 68.53 91.16 67.66C91.16 67.39 91.16 66.08 91.16 63.73C94.69 63.73 96.65 63.73 97.04 63.73C98.83 63.76 100.3 65.12 100.45 66.88C100.45 69.83 100.45 84.54 100.45 111.03C99.31 112.88 98.18 113.81 97.04 113.81C93.23 113.81 62.76 113.81 58.95 113.81Z" id="c16VHSPznq"></path><path d="M64.91 91.23C63.65 89.94 62.96 89.22 62.82 89.08C62.24 88.47 61.27 88.43 60.65 89C60.05 89.62 60.05 90.61 60.65 91.23C60.97 91.56 63.51 94.15 63.82 94.47C64.09 94.78 64.5 94.94 64.91 94.93C65.32 94.93 65.7 94.76 65.99 94.47C66.6 93.9 71.43 89.34 72.03 88.77C72.63 88.22 72.67 87.3 72.13 86.7C72.09 86.67 72.06 86.64 72.03 86.61C71 86.18 70.28 86.16 69.86 86.53C69.53 86.85 67.88 88.41 64.91 91.23Z" id="bfIlIuXcQ"></path><path d="M64.91 91.23C63.65 89.94 62.96 89.22 62.82 89.08C62.24 88.47 61.27 88.43 60.65 89C60.05 89.62 60.05 90.61 60.65 91.23C60.97 91.56 63.51 94.15 63.82 94.47C64.09 94.78 64.5 94.94 64.91 94.93C65.32 94.93 65.7 94.76 65.99 94.47C66.6 93.9 71.43 89.34 72.03 88.77C72.63 88.22 72.67 87.3 72.13 86.7C72.09 86.67 72.06 86.64 72.03 86.61C71 86.18 70.28 86.16 69.86 86.53C69.53 86.85 67.88 88.41 64.91 91.23Z" id="f2SN7K90PH"></path><path d="M74.9 91.46C74.9 92.32 75.59 93 76.45 93C78.23 93 92.48 93 94.26 93C95.11 93 95.8 92.32 95.8 91.46C95.8 90.61 95.11 89.92 94.26 89.92C94.26 89.92 78.23 89.92 76.45 89.92C75.59 89.92 74.9 90.61 74.9 91.46Z" id="g2z1tepNKh"></path><path d="M74.9 91.46C74.9 92.32 75.59 93 76.45 93C78.23 93 92.48 93 94.26 93C95.11 93 95.8 92.32 95.8 91.46C95.8 90.61 95.11 89.92 94.26 89.92C94.26 89.92 78.23 89.92 76.45 89.92C75.59 89.92 74.9 90.61 74.9 91.46Z" id="b2J8yYUa9j"></path><path d="M64.91 78.9C63.65 77.61 62.96 76.89 62.82 76.75C62.24 76.14 61.27 76.1 60.65 76.67C60.05 77.3 60.05 78.28 60.65 78.9C60.97 79.23 63.51 81.82 63.82 82.14C64.09 82.45 64.5 82.62 64.91 82.6C65.32 82.6 65.7 82.43 65.99 82.14C66.6 81.57 71.43 77.01 72.03 76.44C72.63 75.89 72.67 74.97 72.13 74.37C72.09 74.34 72.06 74.31 72.03 74.28C71 73.85 70.28 73.83 69.86 74.2C69.53 74.52 67.88 76.08 64.91 78.9Z" id="bMO9jJ2n0"></path><path d="M64.91 78.9C63.65 77.61 62.96 76.89 62.82 76.75C62.24 76.14 61.27 76.1 60.65 76.67C60.05 77.3 60.05 78.28 60.65 78.9C60.97 79.23 63.51 81.82 63.82 82.14C64.09 82.45 64.5 82.62 64.91 82.6C65.32 82.6 65.7 82.43 65.99 82.14C66.6 81.57 71.43 77.01 72.03 76.44C72.63 75.89 72.67 74.97 72.13 74.37C72.09 74.34 72.06 74.31 72.03 74.28C71 73.85 70.28 73.83 69.86 74.2C69.53 74.52 67.88 76.08 64.91 78.9Z" id="e8D2ZifRJW"></path><path d="M74.9 79.14C74.9 79.99 75.59 80.68 76.45 80.68C78.23 80.68 92.48 80.68 94.26 80.68C95.11 80.68 95.8 79.99 95.8 79.14C95.8 78.28 95.11 77.6 94.26 77.59C94.26 77.59 78.23 77.59 76.45 77.59C75.59 77.6 74.9 78.28 74.9 79.14Z" id="a1fKDu0VM7"></path><path d="M74.9 79.14C74.9 79.99 75.59 80.68 76.45 80.68C78.23 80.68 92.48 80.68 94.26 80.68C95.11 80.68 95.8 79.99 95.8 79.14C95.8 78.28 95.11 77.6 94.26 77.59C94.26 77.59 78.23 77.59 76.45 77.59C75.59 77.6 74.9 78.28 74.9 79.14Z" id="a1HCh4aZCo"></path><path d="M64.91 103.56C63.65 102.27 62.96 101.55 62.82 101.4C62.24 100.79 61.27 100.76 60.65 101.33C60.05 101.95 60.05 102.93 60.65 103.56C60.97 103.88 63.51 106.47 63.82 106.8C64.09 107.1 64.5 107.27 64.91 107.26C65.32 107.25 65.7 107.09 65.99 106.8C66.6 106.23 71.43 101.67 72.03 101.1C72.63 100.55 72.67 99.62 72.13 99.03C72.09 99 72.06 98.97 72.03 98.94C71 98.51 70.28 98.48 69.86 98.86C69.53 99.17 67.88 100.74 64.91 103.56Z" id="c1JD1r0HO"></path><path d="M64.91 103.56C63.65 102.27 62.96 101.55 62.82 101.4C62.24 100.79 61.27 100.76 60.65 101.33C60.05 101.95 60.05 102.93 60.65 103.56C60.97 103.88 63.51 106.47 63.82 106.8C64.09 107.1 64.5 107.27 64.91 107.26C65.32 107.25 65.7 107.09 65.99 106.8C66.6 106.23 71.43 101.67 72.03 101.1C72.63 100.55 72.67 99.62 72.13 99.03C72.09 99 72.06 98.97 72.03 98.94C71 98.51 70.28 98.48 69.86 98.86C69.53 99.17 67.88 100.74 64.91 103.56Z" id="k4Kr1VJMYv"></path><path d="M74.9 103.79C74.9 104.64 75.59 105.33 76.45 105.33C78.23 105.33 92.48 105.33 94.26 105.33C95.11 105.33 95.8 104.64 95.8 103.79C95.8 102.94 95.11 102.25 94.26 102.25C94.26 102.25 78.23 102.25 76.45 102.25C75.59 102.25 74.9 102.94 74.9 103.79Z" id="d9qczHs50Q"></path><path d="M74.9 103.79C74.9 104.64 75.59 105.33 76.45 105.33C78.23 105.33 92.48 105.33 94.26 105.33C95.11 105.33 95.8 104.64 95.8 103.79C95.8 102.94 95.11 102.25 94.26 102.25C94.26 102.25 78.23 102.25 76.45 102.25C75.59 102.25 74.9 102.94 74.9 103.79Z" id="d3c2KK7DhY"></path></defs><g><g><use xlink:href="#a5Gb6hanR9" opacity="1" fill="#f8d00d" fill-opacity="1"></use><g><use xlink:href="#a5Gb6hanR9" opacity="1" fill-opacity="0" stroke="#000000" stroke-width="1" stroke-opacity="0"></use></g></g><g><use xlink:href="#dqUPrUkHn" opacity="1" fill="#000000" fill-opacity="0"></use><g><use xlink:href="#dqUPrUkHn" opacity="1" fill-opacity="0" stroke="#000000" stroke-width="1" stroke-opacity="0"></use></g></g><g><use xlink:href="#joqA1b7Qf" opacity="1" fill="#000000" fill-opacity="1"></use><g><use xlink:href="#joqA1b7Qf" opacity="1" fill-opacity="0" stroke="#000000" stroke-width="1" stroke-opacity="0"></use></g></g><g><use xlink:href="#c16VHSPznq" opacity="1" fill="#000000" fill-opacity="0"></use><g><use xlink:href="#c16VHSPznq" opacity="1" fill-opacity="0" stroke="#000000" stroke-width="1" stroke-opacity="0"></use></g></g><g><use xlink:href="#bfIlIuXcQ" opacity="1" fill="#000000" fill-opacity="1"></use><g><use xlink:href="#bfIlIuXcQ" opacity="1" fill-opacity="0" stroke="#000000" stroke-width="1" stroke-opacity="0"></use></g></g><g><use xlink:href="#f2SN7K90PH" opacity="1" fill="#000000" fill-opacity="0"></use><g><use xlink:href="#f2SN7K90PH" opacity="1" fill-opacity="0" stroke="#000000" stroke-width="1" stroke-opacity="0"></use></g></g><g><use xlink:href="#g2z1tepNKh" opacity="1" fill="#000000" fill-opacity="1"></use><g><use xlink:href="#g2z1tepNKh" opacity="1" fill-opacity="0" stroke="#000000" stroke-width="1" stroke-opacity="0"></use></g></g><g><use xlink:href="#b2J8yYUa9j" opacity="1" fill="#000000" fill-opacity="0"></use><g><use xlink:href="#b2J8yYUa9j" opacity="1" fill-opacity="0" stroke="#000000" stroke-width="1" stroke-opacity="0"></use></g></g><g><use xlink:href="#bMO9jJ2n0" opacity="1" fill="#000000" fill-opacity="1"></use><g><use xlink:href="#bMO9jJ2n0" opacity="1" fill-opacity="0" stroke="#000000" stroke-width="1" stroke-opacity="0"></use></g></g><g><use xlink:href="#e8D2ZifRJW" opacity="1" fill="#000000" fill-opacity="0"></use><g><use xlink:href="#e8D2ZifRJW" opacity="1" fill-opacity="0" stroke="#000000" stroke-width="1" stroke-opacity="0"></use></g></g><g><use xlink:href="#a1fKDu0VM7" opacity="1" fill="#000000" fill-opacity="1"></use><g><use xlink:href="#a1fKDu0VM7" opacity="1" fill-opacity="0" stroke="#000000" stroke-width="1" stroke-opacity="0"></use></g></g><g><use xlink:href="#a1HCh4aZCo" opacity="1" fill="#000000" fill-opacity="0"></use><g><use xlink:href="#a1HCh4aZCo" opacity="1" fill-opacity="0" stroke="#000000" stroke-width="1" stroke-opacity="0"></use></g></g><g><use xlink:href="#c1JD1r0HO" opacity="1" fill="#000000" fill-opacity="1"></use><g><use xlink:href="#c1JD1r0HO" opacity="1" fill-opacity="0" stroke="#000000" stroke-width="1" stroke-opacity="0"></use></g></g><g><use xlink:href="#k4Kr1VJMYv" opacity="1" fill="#000000" fill-opacity="0"></use><g><use xlink:href="#k4Kr1VJMYv" opacity="1" fill-opacity="0" stroke="#000000" stroke-width="1" stroke-opacity="0"></use></g></g><g><use xlink:href="#d9qczHs50Q" opacity="1" fill="#000000" fill-opacity="1"></use><g><use xlink:href="#d9qczHs50Q" opacity="1" fill-opacity="0" stroke="#000000" stroke-width="1" stroke-opacity="0"></use></g></g><g><use xlink:href="#d3c2KK7DhY" opacity="1" fill="#000000" fill-opacity="0"></use><g><use xlink:href="#d3c2KK7DhY" opacity="1" fill-opacity="0" stroke="#000000" stroke-width="1" stroke-opacity="0"></use></g></g></g></svg>