<?xml version="1.0" encoding="UTF-8" standalone="no"?>
<!DOCTYPE svg PUBLIC "-//W3C//DTD SVG 1.1//EN" "http://www.w3.org/Graphics/SVG/1.1/DTD/svg11.dtd">
<svg version="1.1" xmlns="http://www.w3.org/2000/svg" xmlns:xlink="http://www.w3.org/1999/xlink" preserveAspectRatio="xMidYMid meet" viewBox="43.86 34.75 78.2818972171411 93.75" width="74.28" height="89.75"><defs><path d="M88.19 54.32L85.09 54.32L85.09 51.22L88.19 51.22L88.19 54.32Z" id="bnDTLwNaF"></path><path d="M88.19 54.32L85.09 54.32L85.09 51.22L88.19 51.22L88.19 54.32Z" id="i2Y8mpxyjy"></path><path d="M88.19 54.32L85.09 54.32L85.09 51.22L88.19 51.22L88.19 54.32Z" id="d7eHZGn3J4"></path><path d="M88.19 54.32L85.09 54.32L85.09 51.22L88.19 51.22L88.19 54.32Z" id="gVLH151aK"></path><path d="M97.48 54.32L94.38 54.32L94.38 51.22L97.48 51.22L97.48 54.32Z" id="a2iSwqNxqq"></path><path d="M97.48 54.32L94.38 54.32L94.38 51.22L97.48 51.22L97.48 54.32Z" id="d1vdzeBk2Z"></path><path d="M97.48 54.32L94.38 54.32L94.38 51.22L97.48 51.22L97.48 54.32Z" id="d33KUcdAdf"></path><path d="M97.48 54.32L94.38 54.32L94.38 51.22L97.48 51.22L97.48 54.32Z" id="ktIlyRjP6"></path><path d="M111.4 119.31C115.67 119.3 119.13 115.84 119.14 111.57C119.14 109.25 119.14 90.68 119.14 88.36C119.21 84 117.34 79.83 114.02 76.99C110.62 74.24 106.35 72.79 101.98 72.89C101.68 72.89 100.18 72.89 97.47 72.89C97.47 70.49 97.47 69.15 97.47 68.89C101.24 67.2 103.66 63.47 103.66 59.35C103.66 57.61 103.66 43.68 103.66 41.94C103.66 38.52 100.89 35.76 97.47 35.75C96.23 35.75 86.33 35.75 85.09 35.75C81.86 35.76 79.17 38.25 78.92 41.48C76.53 42.2 74.44 43.69 72.98 45.72C72.5 46.43 72.69 47.39 73.4 47.87C73.66 48.04 73.96 48.13 74.26 48.13C74.57 48.13 76.12 48.13 78.9 48.13C78.9 54.86 78.9 58.6 78.9 59.35C78.91 63.47 81.33 67.2 85.09 68.89C85.09 69.15 85.09 70.49 85.09 72.89C79.29 72.89 76.07 72.89 75.42 72.89C68.8 72.89 63.44 78.26 63.43 84.88C63.43 85.32 63.43 87.51 63.43 91.46C56.93 91.46 53.32 91.46 52.6 91.46C51.74 91.46 51.05 92.15 51.05 93.01C51.05 93.93 51.05 98.58 51.05 106.93C50.12 106.93 49.61 106.93 49.5 106.93C46.94 106.93 44.86 109.01 44.86 111.57C44.86 112.04 44.86 115.75 44.86 116.22C44.86 118.78 46.94 120.86 49.5 120.86C49.61 120.86 50.12 120.86 51.05 120.86C51.05 122.71 51.05 123.74 51.05 123.95C51.05 124.8 51.74 125.5 52.6 125.5C57.71 125.5 98.56 125.5 103.66 125.5C104.52 125.5 105.21 124.8 105.21 123.95C105.21 123.64 105.21 122.09 105.21 119.31C105.31 119.31 105.83 119.31 106.76 119.31C106.76 119.62 106.76 121.17 106.76 123.95C108.61 123.95 109.64 123.95 109.85 123.95C109.85 121.17 109.85 119.62 109.85 119.31C110.78 119.31 111.3 119.31 111.4 119.31ZM85.09 112.3C85.1 111.04 86.11 110.02 87.37 110.02C87.92 110.02 92.29 110.02 92.83 110.02C93.69 110.02 94.38 109.33 94.38 108.48C94.38 108.17 94.29 107.87 94.12 107.62C94.02 107.47 93.52 106.72 92.63 105.38C92.72 105.38 93.46 105.38 93.55 105.38C95.13 107.75 96.01 109.07 96.19 109.33C96.47 109.76 96.96 110.02 97.47 110.02C98.09 110.02 101.19 110.02 106.76 110.02C106.76 110.02 106.76 110.04 106.76 110.06C106.97 110.06 108 110.06 109.86 110.06C109.86 101.68 109.86 97.03 109.86 96.1C113.57 96.1 115.64 96.1 116.05 96.1C116.05 105.38 116.05 110.54 116.05 111.57C116.04 114.14 113.97 116.21 111.4 116.22C111.4 116.22 89.77 116.21 87.37 116.21C86.11 116.21 85.1 115.19 85.09 113.94C85.09 113.77 85.09 112.46 85.09 112.3ZM87.62 78.31L85.09 77.81L85.09 75.98L85.87 75.98L87.62 78.31ZM97.47 77.81L94.95 78.31L96.7 75.98L97.47 75.98L97.47 77.81ZM100.57 44.18C97.26 42.77 90.84 40.39 85.09 40.39C84.15 40.41 83.21 40.5 82.29 40.65C82.79 39.55 83.89 38.85 85.09 38.85C87.57 38.85 96.24 38.85 97.47 38.85C99.18 38.85 100.57 40.23 100.57 41.94C100.57 42.16 100.57 43.95 100.57 44.18ZM85.09 43.49C88.09 43.58 91.06 44.1 93.91 45.03C92.36 45.03 79.96 45.03 78.41 45.03C80.51 44.07 82.78 43.55 85.09 43.49ZM100.57 59.35C100.56 63.41 97.28 66.7 93.22 66.7C92.83 66.7 89.74 66.7 89.35 66.7C85.29 66.7 82 63.41 82 59.35C82 57.85 82 54.11 82 48.13C85.71 48.13 98.71 48.13 100.57 48.13C100.57 54.86 100.57 58.6 100.57 59.35ZM94.38 73.92C94.17 74.2 93.14 75.57 91.28 78.05C89.43 75.57 88.4 74.2 88.19 73.92C88.19 71.41 88.19 70.01 88.19 69.73C88.58 69.77 88.96 69.79 89.35 69.79C89.35 69.79 92.83 69.8 93.22 69.8C93.61 69.79 93.99 69.77 94.38 69.73C94.38 70.01 94.38 71.41 94.38 73.92ZM82 75.98C82 77.84 82 78.87 82 79.08C82 79.81 82.52 80.45 83.25 80.59C83.25 80.59 91.18 82.17 91.29 82.17C91.29 82.17 99.33 80.59 99.33 80.59C100.05 80.45 100.57 79.81 100.57 79.08C100.57 78.87 100.57 77.84 100.57 75.98C101.42 75.98 101.89 75.98 101.98 75.98C110.26 75.98 116.05 81.07 116.05 88.36C116.05 88.67 116.05 90.22 116.05 93C115.64 93 113.57 93 109.86 93C109.86 92.59 109.86 90.54 109.86 86.85L106.76 86.85C106.76 98.9 106.76 105.59 106.76 106.93C105.83 106.93 105.31 106.93 105.21 106.93C105.21 98.58 105.21 93.93 105.21 93.01C105.21 92.15 104.52 91.46 103.66 91.46C101.81 91.46 92.52 91.46 75.81 91.46C75.81 91.05 75.81 88.98 75.81 85.27C75.6 85.27 74.57 85.27 72.72 85.27C72.72 88.98 72.72 91.05 72.72 91.46C69.01 91.46 66.94 91.46 66.53 91.46C66.53 87.95 66.53 85.76 66.53 84.88C66.53 79.97 70.51 75.99 75.43 75.98C75.86 75.98 78.06 75.98 82 75.98ZM54.15 100.74L54.15 94.55L77.36 94.55L77.36 100.74L54.15 100.74ZM54.15 103.84L77.36 103.84L77.36 111.57L54.15 111.57L54.15 103.84ZM47.96 111.57C47.96 110.72 48.65 110.03 49.51 110.03C49.61 110.03 50.13 110.03 51.05 110.03C51.05 110.8 51.05 116.99 51.05 117.76C50.23 117.76 49.71 117.76 49.51 117.76C48.65 117.76 47.96 117.07 47.96 116.22C47.96 115.75 47.96 112.04 47.96 111.57ZM77.36 122.4L54.15 122.4L54.15 114.67L77.36 114.67L77.36 122.4ZM80.45 103.84L85.09 103.84L85.09 100.74L80.45 100.74L80.45 94.55L102.12 94.55C102.12 101.98 102.12 106.1 102.12 106.93C99.83 106.93 98.55 106.93 98.3 106.93C96.72 104.56 95.84 103.24 95.67 102.98C95.38 102.55 94.9 102.29 94.38 102.29C93.92 102.29 90.2 102.29 89.74 102.29C88.88 102.29 88.19 102.98 88.19 103.84C88.19 104.14 88.28 104.44 88.45 104.7C88.55 104.85 89.05 105.59 89.94 106.93C88.4 106.93 87.54 106.93 87.37 106.93C84.41 106.94 82.01 109.34 82 112.3C82 112.47 82 113.78 82 113.94C82.01 116.91 84.41 119.31 87.37 119.31C88.36 119.31 93.27 119.31 102.12 119.31C102.12 119.52 102.12 120.55 102.12 122.4C100.68 122.4 93.45 122.4 80.45 122.4L80.45 103.84Z" id="a6KrNfvSb7"></path><path d="M111.4 119.31C115.67 119.3 119.13 115.84 119.14 111.57C119.14 109.25 119.14 90.68 119.14 88.36C119.21 84 117.34 79.83 114.02 76.99C110.62 74.24 106.35 72.79 101.98 72.89C101.68 72.89 100.18 72.89 97.47 72.89C97.47 70.49 97.47 69.15 97.47 68.89C101.24 67.2 103.66 63.47 103.66 59.35C103.66 57.61 103.66 43.68 103.66 41.94C103.66 38.52 100.89 35.76 97.47 35.75C96.23 35.75 86.33 35.75 85.09 35.75C81.86 35.76 79.17 38.25 78.92 41.48C76.53 42.2 74.44 43.69 72.98 45.72C72.5 46.43 72.69 47.39 73.4 47.87C73.66 48.04 73.96 48.13 74.26 48.13C74.57 48.13 76.12 48.13 78.9 48.13C78.9 54.86 78.9 58.6 78.9 59.35C78.91 63.47 81.33 67.2 85.09 68.89C85.09 69.15 85.09 70.49 85.09 72.89C79.29 72.89 76.07 72.89 75.42 72.89C68.8 72.89 63.44 78.26 63.43 84.88C63.43 85.32 63.43 87.51 63.43 91.46C56.93 91.46 53.32 91.46 52.6 91.46C51.74 91.46 51.05 92.15 51.05 93.01C51.05 93.93 51.05 98.58 51.05 106.93C50.12 106.93 49.61 106.93 49.5 106.93C46.94 106.93 44.86 109.01 44.86 111.57C44.86 112.04 44.86 115.75 44.86 116.22C44.86 118.78 46.94 120.86 49.5 120.86C49.61 120.86 50.12 120.86 51.05 120.86C51.05 122.71 51.05 123.74 51.05 123.95C51.05 124.8 51.74 125.5 52.6 125.5C57.71 125.5 98.56 125.5 103.66 125.5C104.52 125.5 105.21 124.8 105.21 123.95C105.21 123.64 105.21 122.09 105.21 119.31C105.31 119.31 105.83 119.31 106.76 119.31C106.76 119.62 106.76 121.17 106.76 123.95C108.61 123.95 109.64 123.95 109.85 123.95C109.85 121.17 109.85 119.62 109.85 119.31C110.78 119.31 111.3 119.31 111.4 119.31ZM85.09 112.3C85.1 111.04 86.11 110.02 87.37 110.02C87.92 110.02 92.29 110.02 92.83 110.02C93.69 110.02 94.38 109.33 94.38 108.48C94.38 108.17 94.29 107.87 94.12 107.62C94.02 107.47 93.52 106.72 92.63 105.38C92.72 105.38 93.46 105.38 93.55 105.38C95.13 107.75 96.01 109.07 96.19 109.33C96.47 109.76 96.96 110.02 97.47 110.02C98.09 110.02 101.19 110.02 106.76 110.02C106.76 110.02 106.76 110.04 106.76 110.06C106.97 110.06 108 110.06 109.86 110.06C109.86 101.68 109.86 97.03 109.86 96.1C113.57 96.1 115.64 96.1 116.05 96.1C116.05 105.38 116.05 110.54 116.05 111.57C116.04 114.14 113.97 116.21 111.4 116.22C111.4 116.22 89.77 116.21 87.37 116.21C86.11 116.21 85.1 115.19 85.09 113.94C85.09 113.77 85.09 112.46 85.09 112.3ZM87.62 78.31L85.09 77.81L85.09 75.98L85.87 75.98L87.62 78.31ZM97.47 77.81L94.95 78.31L96.7 75.98L97.47 75.98L97.47 77.81ZM100.57 44.18C97.26 42.77 90.84 40.39 85.09 40.39C84.15 40.41 83.21 40.5 82.29 40.65C82.79 39.55 83.89 38.85 85.09 38.85C87.57 38.85 96.24 38.85 97.47 38.85C99.18 38.85 100.57 40.23 100.57 41.94C100.57 42.16 100.57 43.95 100.57 44.18ZM85.09 43.49C88.09 43.58 91.06 44.1 93.91 45.03C92.36 45.03 79.96 45.03 78.41 45.03C80.51 44.07 82.78 43.55 85.09 43.49ZM100.57 59.35C100.56 63.41 97.28 66.7 93.22 66.7C92.83 66.7 89.74 66.7 89.35 66.7C85.29 66.7 82 63.41 82 59.35C82 57.85 82 54.11 82 48.13C85.71 48.13 98.71 48.13 100.57 48.13C100.57 54.86 100.57 58.6 100.57 59.35ZM94.38 73.92C94.17 74.2 93.14 75.57 91.28 78.05C89.43 75.57 88.4 74.2 88.19 73.92C88.19 71.41 88.19 70.01 88.19 69.73C88.58 69.77 88.96 69.79 89.35 69.79C89.35 69.79 92.83 69.8 93.22 69.8C93.61 69.79 93.99 69.77 94.38 69.73C94.38 70.01 94.38 71.41 94.38 73.92ZM82 75.98C82 77.84 82 78.87 82 79.08C82 79.81 82.52 80.45 83.25 80.59C83.25 80.59 91.18 82.17 91.29 82.17C91.29 82.17 99.33 80.59 99.33 80.59C100.05 80.45 100.57 79.81 100.57 79.08C100.57 78.87 100.57 77.84 100.57 75.98C101.42 75.98 101.89 75.98 101.98 75.98C110.26 75.98 116.05 81.07 116.05 88.36C116.05 88.67 116.05 90.22 116.05 93C115.64 93 113.57 93 109.86 93C109.86 92.59 109.86 90.54 109.86 86.85L106.76 86.85C106.76 98.9 106.76 105.59 106.76 106.93C105.83 106.93 105.31 106.93 105.21 106.93C105.21 98.58 105.21 93.93 105.21 93.01C105.21 92.15 104.52 91.46 103.66 91.46C101.81 91.46 92.52 91.46 75.81 91.46C75.81 91.05 75.81 88.98 75.81 85.27C75.6 85.27 74.57 85.27 72.72 85.27C72.72 88.98 72.72 91.05 72.72 91.46C69.01 91.46 66.94 91.46 66.53 91.46C66.53 87.95 66.53 85.76 66.53 84.88C66.53 79.97 70.51 75.99 75.43 75.98C75.86 75.98 78.06 75.98 82 75.98ZM54.15 100.74L54.15 94.55L77.36 94.55L77.36 100.74L54.15 100.74ZM54.15 103.84L77.36 103.84L77.36 111.57L54.15 111.57L54.15 103.84ZM47.96 111.57C47.96 110.72 48.65 110.03 49.51 110.03C49.61 110.03 50.13 110.03 51.05 110.03C51.05 110.8 51.05 116.99 51.05 117.76C50.23 117.76 49.71 117.76 49.51 117.76C48.65 117.76 47.96 117.07 47.96 116.22C47.96 115.75 47.96 112.04 47.96 111.57ZM77.36 122.4L54.15 122.4L54.15 114.67L77.36 114.67L77.36 122.4ZM80.45 103.84L85.09 103.84L85.09 100.74L80.45 100.74L80.45 94.55L102.12 94.55C102.12 101.98 102.12 106.1 102.12 106.93C99.83 106.93 98.55 106.93 98.3 106.93C96.72 104.56 95.84 103.24 95.67 102.98C95.38 102.55 94.9 102.29 94.38 102.29C93.92 102.29 90.2 102.29 89.74 102.29C88.88 102.29 88.19 102.98 88.19 103.84C88.19 104.14 88.28 104.44 88.45 104.7C88.55 104.85 89.05 105.59 89.94 106.93C88.4 106.93 87.54 106.93 87.37 106.93C84.41 106.94 82.01 109.34 82 112.3C82 112.47 82 113.78 82 113.94C82.01 116.91 84.41 119.31 87.37 119.31C88.36 119.31 93.27 119.31 102.12 119.31C102.12 119.52 102.12 120.55 102.12 122.4C100.68 122.4 93.45 122.4 80.45 122.4L80.45 103.84Z" id="b5aSzLAKZg"></path><path d="M111.4 119.31C115.67 119.3 119.13 115.84 119.14 111.57C119.14 109.25 119.14 90.68 119.14 88.36C119.21 84 117.34 79.83 114.02 76.99C110.62 74.24 106.35 72.79 101.98 72.89C101.68 72.89 100.18 72.89 97.47 72.89C97.47 70.49 97.47 69.15 97.47 68.89C101.24 67.2 103.66 63.47 103.66 59.35C103.66 57.61 103.66 43.68 103.66 41.94C103.66 38.52 100.89 35.76 97.47 35.75C96.23 35.75 86.33 35.75 85.09 35.75C81.86 35.76 79.17 38.25 78.92 41.48C76.53 42.2 74.44 43.69 72.98 45.72C72.5 46.43 72.69 47.39 73.4 47.87C73.66 48.04 73.96 48.13 74.26 48.13C74.57 48.13 76.12 48.13 78.9 48.13C78.9 54.86 78.9 58.6 78.9 59.35C78.91 63.47 81.33 67.2 85.09 68.89C85.09 69.15 85.09 70.49 85.09 72.89C79.29 72.89 76.07 72.89 75.42 72.89C68.8 72.89 63.44 78.26 63.43 84.88C63.43 85.32 63.43 87.51 63.43 91.46C56.93 91.46 53.32 91.46 52.6 91.46C51.74 91.46 51.05 92.15 51.05 93.01C51.05 93.93 51.05 98.58 51.05 106.93C50.12 106.93 49.61 106.93 49.5 106.93C46.94 106.93 44.86 109.01 44.86 111.57C44.86 112.04 44.86 115.75 44.86 116.22C44.86 118.78 46.94 120.86 49.5 120.86C49.61 120.86 50.12 120.86 51.05 120.86C51.05 122.71 51.05 123.74 51.05 123.95C51.05 124.8 51.74 125.5 52.6 125.5C57.71 125.5 98.56 125.5 103.66 125.5C104.52 125.5 105.21 124.8 105.21 123.95C105.21 123.64 105.21 122.09 105.21 119.31C105.31 119.31 105.83 119.31 106.76 119.31C106.76 119.62 106.76 121.17 106.76 123.95C108.61 123.95 109.64 123.95 109.85 123.95C109.85 121.17 109.85 119.62 109.85 119.31C110.78 119.31 111.3 119.31 111.4 119.31ZM85.09 112.3C85.1 111.04 86.11 110.02 87.37 110.02C87.92 110.02 92.29 110.02 92.83 110.02C93.69 110.02 94.38 109.33 94.38 108.48C94.38 108.17 94.29 107.87 94.12 107.62C94.02 107.47 93.52 106.72 92.63 105.38C92.72 105.38 93.46 105.38 93.55 105.38C95.13 107.75 96.01 109.07 96.19 109.33C96.47 109.76 96.96 110.02 97.47 110.02C98.09 110.02 101.19 110.02 106.76 110.02C106.76 110.02 106.76 110.04 106.76 110.06C106.97 110.06 108 110.06 109.86 110.06C109.86 101.68 109.86 97.03 109.86 96.1C113.57 96.1 115.64 96.1 116.05 96.1C116.05 105.38 116.05 110.54 116.05 111.57C116.04 114.14 113.97 116.21 111.4 116.22C111.4 116.22 89.77 116.21 87.37 116.21C86.11 116.21 85.1 115.19 85.09 113.94C85.09 113.77 85.09 112.46 85.09 112.3ZM87.62 78.31L85.09 77.81L85.09 75.98L85.87 75.98L87.62 78.31ZM97.47 77.81L94.95 78.31L96.7 75.98L97.47 75.98L97.47 77.81ZM100.57 44.18C97.26 42.77 90.84 40.39 85.09 40.39C84.15 40.41 83.21 40.5 82.29 40.65C82.79 39.55 83.89 38.85 85.09 38.85C87.57 38.85 96.24 38.85 97.47 38.85C99.18 38.85 100.57 40.23 100.57 41.94C100.57 42.16 100.57 43.95 100.57 44.18ZM85.09 43.49C88.09 43.58 91.06 44.1 93.91 45.03C92.36 45.03 79.96 45.03 78.41 45.03C80.51 44.07 82.78 43.55 85.09 43.49ZM100.57 59.35C100.56 63.41 97.28 66.7 93.22 66.7C92.83 66.7 89.74 66.7 89.35 66.7C85.29 66.7 82 63.41 82 59.35C82 57.85 82 54.11 82 48.13C85.71 48.13 98.71 48.13 100.57 48.13C100.57 54.86 100.57 58.6 100.57 59.35ZM94.38 73.92C94.17 74.2 93.14 75.57 91.28 78.05C89.43 75.57 88.4 74.2 88.19 73.92C88.19 71.41 88.19 70.01 88.19 69.73C88.58 69.77 88.96 69.79 89.35 69.79C89.35 69.79 92.83 69.8 93.22 69.8C93.61 69.79 93.99 69.77 94.38 69.73C94.38 70.01 94.38 71.41 94.38 73.92ZM82 75.98C82 77.84 82 78.87 82 79.08C82 79.81 82.52 80.45 83.25 80.59C83.25 80.59 91.18 82.17 91.29 82.17C91.29 82.17 99.33 80.59 99.33 80.59C100.05 80.45 100.57 79.81 100.57 79.08C100.57 78.87 100.57 77.84 100.57 75.98C101.42 75.98 101.89 75.98 101.98 75.98C110.26 75.98 116.05 81.07 116.05 88.36C116.05 88.67 116.05 90.22 116.05 93C115.64 93 113.57 93 109.86 93C109.86 92.59 109.86 90.54 109.86 86.85L106.76 86.85C106.76 98.9 106.76 105.59 106.76 106.93C105.83 106.93 105.31 106.93 105.21 106.93C105.21 98.58 105.21 93.93 105.21 93.01C105.21 92.15 104.52 91.46 103.66 91.46C101.81 91.46 92.52 91.46 75.81 91.46C75.81 91.05 75.81 88.98 75.81 85.27C75.6 85.27 74.57 85.27 72.72 85.27C72.72 88.98 72.72 91.05 72.72 91.46C69.01 91.46 66.94 91.46 66.53 91.46C66.53 87.95 66.53 85.76 66.53 84.88C66.53 79.97 70.51 75.99 75.43 75.98C75.86 75.98 78.06 75.98 82 75.98ZM54.15 100.74L54.15 94.55L77.36 94.55L77.36 100.74L54.15 100.74ZM54.15 103.84L77.36 103.84L77.36 111.57L54.15 111.57L54.15 103.84ZM47.96 111.57C47.96 110.72 48.65 110.03 49.51 110.03C49.61 110.03 50.13 110.03 51.05 110.03C51.05 110.8 51.05 116.99 51.05 117.76C50.23 117.76 49.71 117.76 49.51 117.76C48.65 117.76 47.96 117.07 47.96 116.22C47.96 115.75 47.96 112.04 47.96 111.57ZM77.36 122.4L54.15 122.4L54.15 114.67L77.36 114.67L77.36 122.4ZM80.45 103.84L85.09 103.84L85.09 100.74L80.45 100.74L80.45 94.55L102.12 94.55C102.12 101.98 102.12 106.1 102.12 106.93C99.83 106.93 98.55 106.93 98.3 106.93C96.72 104.56 95.84 103.24 95.67 102.98C95.38 102.55 94.9 102.29 94.38 102.29C93.92 102.29 90.2 102.29 89.74 102.29C88.88 102.29 88.19 102.98 88.19 103.84C88.19 104.14 88.28 104.44 88.45 104.7C88.55 104.85 89.05 105.59 89.94 106.93C88.4 106.93 87.54 106.93 87.37 106.93C84.41 106.94 82.01 109.34 82 112.3C82 112.47 82 113.78 82 113.94C82.01 116.91 84.41 119.31 87.37 119.31C88.36 119.31 93.27 119.31 102.12 119.31C102.12 119.52 102.12 120.55 102.12 122.4C100.68 122.4 93.45 122.4 80.45 122.4L80.45 103.84Z" id="fez99c40S"></path><path d="M111.4 119.31C115.67 119.3 119.13 115.84 119.14 111.57C119.14 109.25 119.14 90.68 119.14 88.36C119.21 84 117.34 79.83 114.02 76.99C110.62 74.24 106.35 72.79 101.98 72.89C101.68 72.89 100.18 72.89 97.47 72.89C97.47 70.49 97.47 69.15 97.47 68.89C101.24 67.2 103.66 63.47 103.66 59.35C103.66 57.61 103.66 43.68 103.66 41.94C103.66 38.52 100.89 35.76 97.47 35.75C96.23 35.75 86.33 35.75 85.09 35.75C81.86 35.76 79.17 38.25 78.92 41.48C76.53 42.2 74.44 43.69 72.98 45.72C72.5 46.43 72.69 47.39 73.4 47.87C73.66 48.04 73.96 48.13 74.26 48.13C74.57 48.13 76.12 48.13 78.9 48.13C78.9 54.86 78.9 58.6 78.9 59.35C78.91 63.47 81.33 67.2 85.09 68.89C85.09 69.15 85.09 70.49 85.09 72.89C79.29 72.89 76.07 72.89 75.42 72.89C68.8 72.89 63.44 78.26 63.43 84.88C63.43 85.32 63.43 87.51 63.43 91.46C56.93 91.46 53.32 91.46 52.6 91.46C51.74 91.46 51.05 92.15 51.05 93.01C51.05 93.93 51.05 98.58 51.05 106.93C50.12 106.93 49.61 106.93 49.5 106.93C46.94 106.93 44.86 109.01 44.86 111.57C44.86 112.04 44.86 115.75 44.86 116.22C44.86 118.78 46.94 120.86 49.5 120.86C49.61 120.86 50.12 120.86 51.05 120.86C51.05 122.71 51.05 123.74 51.05 123.95C51.05 124.8 51.74 125.5 52.6 125.5C57.71 125.5 98.56 125.5 103.66 125.5C104.52 125.5 105.21 124.8 105.21 123.95C105.21 123.64 105.21 122.09 105.21 119.31C105.31 119.31 105.83 119.31 106.76 119.31C106.76 119.62 106.76 121.17 106.76 123.95C108.61 123.95 109.64 123.95 109.85 123.95C109.85 121.17 109.85 119.62 109.85 119.31C110.78 119.31 111.3 119.31 111.4 119.31ZM85.09 112.3C85.1 111.04 86.11 110.02 87.37 110.02C87.92 110.02 92.29 110.02 92.83 110.02C93.69 110.02 94.38 109.33 94.38 108.48C94.38 108.17 94.29 107.87 94.12 107.62C94.02 107.47 93.52 106.72 92.63 105.38C92.72 105.38 93.46 105.38 93.55 105.38C95.13 107.75 96.01 109.07 96.19 109.33C96.47 109.76 96.96 110.02 97.47 110.02C98.09 110.02 101.19 110.02 106.76 110.02C106.76 110.02 106.76 110.04 106.76 110.06C106.97 110.06 108 110.06 109.86 110.06C109.86 101.68 109.86 97.03 109.86 96.1C113.57 96.1 115.64 96.1 116.05 96.1C116.05 105.38 116.05 110.54 116.05 111.57C116.04 114.14 113.97 116.21 111.4 116.22C111.4 116.22 89.77 116.21 87.37 116.21C86.11 116.21 85.1 115.19 85.09 113.94C85.09 113.77 85.09 112.46 85.09 112.3ZM87.62 78.31L85.09 77.81L85.09 75.98L85.87 75.98L87.62 78.31ZM97.47 77.81L94.95 78.31L96.7 75.98L97.47 75.98L97.47 77.81ZM100.57 44.18C97.26 42.77 90.84 40.39 85.09 40.39C84.15 40.41 83.21 40.5 82.29 40.65C82.79 39.55 83.89 38.85 85.09 38.85C87.57 38.85 96.24 38.85 97.47 38.85C99.18 38.85 100.57 40.23 100.57 41.94C100.57 42.16 100.57 43.95 100.57 44.18ZM85.09 43.49C88.09 43.58 91.06 44.1 93.91 45.03C92.36 45.03 79.96 45.03 78.41 45.03C80.51 44.07 82.78 43.55 85.09 43.49ZM100.57 59.35C100.56 63.41 97.28 66.7 93.22 66.7C92.83 66.7 89.74 66.7 89.35 66.7C85.29 66.7 82 63.41 82 59.35C82 57.85 82 54.11 82 48.13C85.71 48.13 98.71 48.13 100.57 48.13C100.57 54.86 100.57 58.6 100.57 59.35ZM94.38 73.92C94.17 74.2 93.14 75.57 91.28 78.05C89.43 75.57 88.4 74.2 88.19 73.92C88.19 71.41 88.19 70.01 88.19 69.73C88.58 69.77 88.96 69.79 89.35 69.79C89.35 69.79 92.83 69.8 93.22 69.8C93.61 69.79 93.99 69.77 94.38 69.73C94.38 70.01 94.38 71.41 94.38 73.92ZM82 75.98C82 77.84 82 78.87 82 79.08C82 79.81 82.52 80.45 83.25 80.59C83.25 80.59 91.18 82.17 91.29 82.17C91.29 82.17 99.33 80.59 99.33 80.59C100.05 80.45 100.57 79.81 100.57 79.08C100.57 78.87 100.57 77.84 100.57 75.98C101.42 75.98 101.89 75.98 101.98 75.98C110.26 75.98 116.05 81.07 116.05 88.36C116.05 88.67 116.05 90.22 116.05 93C115.64 93 113.57 93 109.86 93C109.86 92.59 109.86 90.54 109.86 86.85L106.76 86.85C106.76 98.9 106.76 105.59 106.76 106.93C105.83 106.93 105.31 106.93 105.21 106.93C105.21 98.58 105.21 93.93 105.21 93.01C105.21 92.15 104.52 91.46 103.66 91.46C101.81 91.46 92.52 91.46 75.81 91.46C75.81 91.05 75.81 88.98 75.81 85.27C75.6 85.27 74.57 85.27 72.72 85.27C72.72 88.98 72.72 91.05 72.72 91.46C69.01 91.46 66.94 91.46 66.53 91.46C66.53 87.95 66.53 85.76 66.53 84.88C66.53 79.97 70.51 75.99 75.43 75.98C75.86 75.98 78.06 75.98 82 75.98ZM54.15 100.74L54.15 94.55L77.36 94.55L77.36 100.74L54.15 100.74ZM54.15 103.84L77.36 103.84L77.36 111.57L54.15 111.57L54.15 103.84ZM47.96 111.57C47.96 110.72 48.65 110.03 49.51 110.03C49.61 110.03 50.13 110.03 51.05 110.03C51.05 110.8 51.05 116.99 51.05 117.76C50.23 117.76 49.71 117.76 49.51 117.76C48.65 117.76 47.96 117.07 47.96 116.22C47.96 115.75 47.96 112.04 47.96 111.57ZM77.36 122.4L54.15 122.4L54.15 114.67L77.36 114.67L77.36 122.4ZM80.45 103.84L85.09 103.84L85.09 100.74L80.45 100.74L80.45 94.55L102.12 94.55C102.12 101.98 102.12 106.1 102.12 106.93C99.83 106.93 98.55 106.93 98.3 106.93C96.72 104.56 95.84 103.24 95.67 102.98C95.38 102.55 94.9 102.29 94.38 102.29C93.92 102.29 90.2 102.29 89.74 102.29C88.88 102.29 88.19 102.98 88.19 103.84C88.19 104.14 88.28 104.44 88.45 104.7C88.55 104.85 89.05 105.59 89.94 106.93C88.4 106.93 87.54 106.93 87.37 106.93C84.41 106.94 82.01 109.34 82 112.3C82 112.47 82 113.78 82 113.94C82.01 116.91 84.41 119.31 87.37 119.31C88.36 119.31 93.27 119.31 102.12 119.31C102.12 119.52 102.12 120.55 102.12 122.4C100.68 122.4 93.45 122.4 80.45 122.4L80.45 103.84Z" id="aNxX4jKba"></path><path d="M92.83 99.2L88.19 99.2L88.19 96.1L92.83 96.1L92.83 99.2Z" id="j3GtUOYSe1"></path><path d="M92.83 99.2L88.19 99.2L88.19 96.1L92.83 96.1L92.83 99.2Z" id="e1uc5CjAnm"></path><path d="M92.83 99.2L88.19 99.2L88.19 96.1L92.83 96.1L92.83 99.2Z" id="b1EMdmat1c"></path><path d="M92.83 99.2L88.19 99.2L88.19 96.1L92.83 96.1L92.83 99.2Z" id="kCBjDPqQM"></path><path d="M99.02 99.2L94.38 99.2L94.38 96.1L99.02 96.1L99.02 99.2Z" id="c7As8MzCIW"></path><path d="M99.02 99.2L94.38 99.2L94.38 96.1L99.02 96.1L99.02 99.2Z" id="c4Hf2Iutb"></path><path d="M99.02 99.2L94.38 99.2L94.38 96.1L99.02 96.1L99.02 99.2Z" id="a2E7iTIYEC"></path><path d="M99.02 99.2L94.38 99.2L94.38 96.1L99.02 96.1L99.02 99.2Z" id="c2dYBUy0WB"></path><path d="M89.74 58.96C89.43 58.96 86.95 58.96 86.64 58.96C86.64 61.52 88.72 63.6 91.28 63.6C93.85 63.6 95.93 61.52 95.93 58.96C95.31 58.96 93.14 58.96 92.83 58.96C92.83 59.82 92.14 60.51 91.28 60.51C90.43 60.51 89.74 59.82 89.74 58.96Z" id="bBVGHybEZ"></path><path d="M89.74 58.96C89.43 58.96 86.95 58.96 86.64 58.96C86.64 61.52 88.72 63.6 91.28 63.6C93.85 63.6 95.93 61.52 95.93 58.96C95.31 58.96 93.14 58.96 92.83 58.96C92.83 59.82 92.14 60.51 91.28 60.51C90.43 60.51 89.74 59.82 89.74 58.96Z" id="b1uwrfyXW"></path><path d="M89.74 58.96C89.43 58.96 86.95 58.96 86.64 58.96C86.64 61.52 88.72 63.6 91.28 63.6C93.85 63.6 95.93 61.52 95.93 58.96C95.31 58.96 93.14 58.96 92.83 58.96C92.83 59.82 92.14 60.51 91.28 60.51C90.43 60.51 89.74 59.82 89.74 58.96Z" id="cbhHyTeQ3"></path><path d="M89.74 58.96C89.43 58.96 86.95 58.96 86.64 58.96C86.64 61.52 88.72 63.6 91.28 63.6C93.85 63.6 95.93 61.52 95.93 58.96C95.31 58.96 93.14 58.96 92.83 58.96C92.83 59.82 92.14 60.51 91.28 60.51C90.43 60.51 89.74 59.82 89.74 58.96Z" id="cMmydp7g1"></path><path d="M78 101C78 101 78 101 78 101C63.6 101 55.6 101 54 101C54 101 54 101 54 101C54 96.8 54 94.47 54 94C54 94 54 94 54 94C68.4 94 76.4 94 78 94C78 94 78 94 78 94C78 98.2 78 100.53 78 101Z" id="a2NSWYJDWt"></path><path d="M78 101C78 101 78 101 78 101C63.6 101 55.6 101 54 101C54 101 54 101 54 101C54 96.8 54 94.47 54 94C54 94 54 94 54 94C68.4 94 76.4 94 78 94C78 94 78 94 78 94C78 98.2 78 100.53 78 101Z" id="a3NF4RiQN0"></path><path d="M78 101C78 101 78 101 78 101C63.6 101 55.6 101 54 101C54 101 54 101 54 101C54 96.8 54 94.47 54 94C54 94 54 94 54 94C68.4 94 76.4 94 78 94C78 94 78 94 78 94C78 98.2 78 100.53 78 101Z" id="b6cDDxiCwZ"></path><path d="M78 101C78 101 78 101 78 101C63.6 101 55.6 101 54 101C54 101 54 101 54 101C54 96.8 54 94.47 54 94C54 94 54 94 54 94C68.4 94 76.4 94 78 94C78 94 78 94 78 94C78 98.2 78 100.53 78 101Z" id="g1n5ygbEq7"></path><path d="M78 112C78 112 78 112 78 112C63.6 112 55.6 112 54 112C54 112 54 112 54 112C54 106.6 54 103.6 54 103C54 103 54 103 54 103C68.4 103 76.4 103 78 103C78 103 78 103 78 103C78 108.4 78 111.4 78 112Z" id="asGpyjIQ3"></path><path d="M78 112C78 112 78 112 78 112C63.6 112 55.6 112 54 112C54 112 54 112 54 112C54 106.6 54 103.6 54 103C54 103 54 103 54 103C68.4 103 76.4 103 78 103C78 103 78 103 78 103C78 108.4 78 111.4 78 112Z" id="a198UV6Vgk"></path><path d="M78 112C78 112 78 112 78 112C63.6 112 55.6 112 54 112C54 112 54 112 54 112C54 106.6 54 103.6 54 103C54 103 54 103 54 103C68.4 103 76.4 103 78 103C78 103 78 103 78 103C78 108.4 78 111.4 78 112Z" id="dBNVLGSaY"></path><path d="M78 112C78 112 78 112 78 112C63.6 112 55.6 112 54 112C54 112 54 112 54 112C54 106.6 54 103.6 54 103C54 103 54 103 54 103C68.4 103 76.4 103 78 103C78 103 78 103 78 103C78 108.4 78 111.4 78 112Z" id="cnKkQbyuj"></path><path d="M78 123C78 123 78 123 78 123C63.6 123 55.6 123 54 123C54 123 54 123 54 123C54 117.6 54 114.6 54 114C54 114 54 114 54 114C68.4 114 76.4 114 78 114C78 114 78 114 78 114C78 119.4 78 122.4 78 123Z" id="f47qyzx1GE"></path><path d="M78 123C78 123 78 123 78 123C63.6 123 55.6 123 54 123C54 123 54 123 54 123C54 117.6 54 114.6 54 114C54 114 54 114 54 114C68.4 114 76.4 114 78 114C78 114 78 114 78 114C78 119.4 78 122.4 78 123Z" id="a4LWoALyHm"></path><path d="M78 123C78 123 78 123 78 123C63.6 123 55.6 123 54 123C54 123 54 123 54 123C54 117.6 54 114.6 54 114C54 114 54 114 54 114C68.4 114 76.4 114 78 114C78 114 78 114 78 114C78 119.4 78 122.4 78 123Z" id="e1tD98qt70"></path><path d="M78 123C78 123 78 123 78 123C63.6 123 55.6 123 54 123C54 123 54 123 54 123C54 117.6 54 114.6 54 114C54 114 54 114 54 114C68.4 114 76.4 114 78 114C78 114 78 114 78 114C78 119.4 78 122.4 78 123Z" id="cGG8Va6sv"></path><path d="M80.45 103.84L85.09 103.84L85.09 100.74L80.45 100.74L80.45 94.55L102.12 94.55C102.12 101.98 102.12 106.1 102.12 106.93C99.83 106.93 98.55 106.93 98.3 106.93C96.72 104.56 95.84 103.24 95.67 102.98C95.38 102.55 94.9 102.29 94.38 102.29C93.92 102.29 90.2 102.29 89.74 102.29C88.88 102.29 88.19 102.98 88.19 103.84C88.19 104.14 88.28 104.44 88.45 104.69C88.55 104.84 89.05 105.59 89.94 106.93C88.4 106.93 87.54 106.93 87.37 106.93C84.41 106.93 82.01 109.34 82 112.3C82 112.46 82 113.78 82 113.94C82.01 116.91 84.41 119.31 87.37 119.31C88.36 119.31 93.27 119.31 102.12 119.31C102.12 119.52 102.12 120.55 102.12 122.41C100.68 122.41 93.45 122.41 80.45 122.41L80.45 103.84Z" id="avNOMZAEY"></path><path d="M80.45 103.84L85.09 103.84L85.09 100.74L80.45 100.74L80.45 94.55L102.12 94.55C102.12 101.98 102.12 106.1 102.12 106.93C99.83 106.93 98.55 106.93 98.3 106.93C96.72 104.56 95.84 103.24 95.67 102.98C95.38 102.55 94.9 102.29 94.38 102.29C93.92 102.29 90.2 102.29 89.74 102.29C88.88 102.29 88.19 102.98 88.19 103.84C88.19 104.14 88.28 104.44 88.45 104.69C88.55 104.84 89.05 105.59 89.94 106.93C88.4 106.93 87.54 106.93 87.37 106.93C84.41 106.93 82.01 109.34 82 112.3C82 112.46 82 113.78 82 113.94C82.01 116.91 84.41 119.31 87.37 119.31C88.36 119.31 93.27 119.31 102.12 119.31C102.12 119.52 102.12 120.55 102.12 122.41C100.68 122.41 93.45 122.41 80.45 122.41L80.45 103.84Z" id="b6xenc1jlJ"></path><path d="M80.45 103.84L85.09 103.84L85.09 100.74L80.45 100.74L80.45 94.55L102.12 94.55C102.12 101.98 102.12 106.1 102.12 106.93C99.83 106.93 98.55 106.93 98.3 106.93C96.72 104.56 95.84 103.24 95.67 102.98C95.38 102.55 94.9 102.29 94.38 102.29C93.92 102.29 90.2 102.29 89.74 102.29C88.88 102.29 88.19 102.98 88.19 103.84C88.19 104.14 88.28 104.44 88.45 104.69C88.55 104.84 89.05 105.59 89.94 106.93C88.4 106.93 87.54 106.93 87.37 106.93C84.41 106.93 82.01 109.34 82 112.3C82 112.46 82 113.78 82 113.94C82.01 116.91 84.41 119.31 87.37 119.31C88.36 119.31 93.27 119.31 102.12 119.31C102.12 119.52 102.12 120.55 102.12 122.41C100.68 122.41 93.45 122.41 80.45 122.41L80.45 103.84Z" id="a5QGChGSNT"></path><path d="M80.45 103.84L85.09 103.84L85.09 100.74L80.45 100.74L80.45 94.55L102.12 94.55C102.12 101.98 102.12 106.1 102.12 106.93C99.83 106.93 98.55 106.93 98.3 106.93C96.72 104.56 95.84 103.24 95.67 102.98C95.38 102.55 94.9 102.29 94.38 102.29C93.92 102.29 90.2 102.29 89.74 102.29C88.88 102.29 88.19 102.98 88.19 103.84C88.19 104.14 88.28 104.44 88.45 104.69C88.55 104.84 89.05 105.59 89.94 106.93C88.4 106.93 87.54 106.93 87.37 106.93C84.41 106.93 82.01 109.34 82 112.3C82 112.46 82 113.78 82 113.94C82.01 116.91 84.41 119.31 87.37 119.31C88.36 119.31 93.27 119.31 102.12 119.31C102.12 119.52 102.12 120.55 102.12 122.41C100.68 122.41 93.45 122.41 80.45 122.41L80.45 103.84Z" id="g5bYoEkLQt"></path></defs><g><g><use xlink:href="#bnDTLwNaF" opacity="1" fill="#000000" fill-opacity="1"></use><g><use xlink:href="#bnDTLwNaF" opacity="1" fill-opacity="0" stroke="#000000" stroke-width="1" stroke-opacity="0"></use></g></g><g><use xlink:href="#i2Y8mpxyjy" opacity="1" fill="#000000" fill-opacity="0"></use><g><use xlink:href="#i2Y8mpxyjy" opacity="1" fill-opacity="0" stroke="#000000" stroke-width="1" stroke-opacity="0"></use></g></g><g><use xlink:href="#d7eHZGn3J4" opacity="1" fill="#000000" fill-opacity="0"></use><g><use xlink:href="#d7eHZGn3J4" opacity="1" fill-opacity="0" stroke="#000000" stroke-width="1" stroke-opacity="0"></use></g></g><g><use xlink:href="#gVLH151aK" opacity="1" fill="#000000" fill-opacity="0"></use><g><use xlink:href="#gVLH151aK" opacity="1" fill-opacity="0" stroke="#000000" stroke-width="1" stroke-opacity="0"></use></g></g><g><use xlink:href="#a2iSwqNxqq" opacity="1" fill="#000000" fill-opacity="1"></use><g><use xlink:href="#a2iSwqNxqq" opacity="1" fill-opacity="0" stroke="#000000" stroke-width="1" stroke-opacity="0"></use></g></g><g><use xlink:href="#d1vdzeBk2Z" opacity="1" fill="#000000" fill-opacity="0"></use><g><use xlink:href="#d1vdzeBk2Z" opacity="1" fill-opacity="0" stroke="#000000" stroke-width="1" stroke-opacity="0"></use></g></g><g><use xlink:href="#d33KUcdAdf" opacity="1" fill="#000000" fill-opacity="0"></use><g><use xlink:href="#d33KUcdAdf" opacity="1" fill-opacity="0" stroke="#000000" stroke-width="1" stroke-opacity="0"></use></g></g><g><use xlink:href="#ktIlyRjP6" opacity="1" fill="#000000" fill-opacity="0"></use><g><use xlink:href="#ktIlyRjP6" opacity="1" fill-opacity="0" stroke="#000000" stroke-width="1" stroke-opacity="0"></use></g></g><g><use xlink:href="#a6KrNfvSb7" opacity="1" fill="#000000" fill-opacity="1"></use><g><use xlink:href="#a6KrNfvSb7" opacity="1" fill-opacity="0" stroke="#000000" stroke-width="1" stroke-opacity="0"></use></g></g><g><use xlink:href="#b5aSzLAKZg" opacity="1" fill="#000000" fill-opacity="0"></use><g><use xlink:href="#b5aSzLAKZg" opacity="1" fill-opacity="0" stroke="#000000" stroke-width="1" stroke-opacity="0"></use></g></g><g><use xlink:href="#fez99c40S" opacity="1" fill="#000000" fill-opacity="0"></use><g><use xlink:href="#fez99c40S" opacity="1" fill-opacity="0" stroke="#000000" stroke-width="1" stroke-opacity="0"></use></g></g><g><use xlink:href="#aNxX4jKba" opacity="1" fill="#000000" fill-opacity="0"></use><g><use xlink:href="#aNxX4jKba" opacity="1" fill-opacity="0" stroke="#000000" stroke-width="1" stroke-opacity="0"></use></g></g><g><use xlink:href="#j3GtUOYSe1" opacity="1" fill="#000000" fill-opacity="1"></use><g><use xlink:href="#j3GtUOYSe1" opacity="1" fill-opacity="0" stroke="#000000" stroke-width="1" stroke-opacity="0"></use></g></g><g><use xlink:href="#e1uc5CjAnm" opacity="1" fill="#000000" fill-opacity="0"></use><g><use xlink:href="#e1uc5CjAnm" opacity="1" fill-opacity="0" stroke="#000000" stroke-width="1" stroke-opacity="0"></use></g></g><g><use xlink:href="#b1EMdmat1c" opacity="1" fill="#000000" fill-opacity="0"></use><g><use xlink:href="#b1EMdmat1c" opacity="1" fill-opacity="0" stroke="#000000" stroke-width="1" stroke-opacity="0"></use></g></g><g><use xlink:href="#kCBjDPqQM" opacity="1" fill="#000000" fill-opacity="0"></use><g><use xlink:href="#kCBjDPqQM" opacity="1" fill-opacity="0" stroke="#000000" stroke-width="1" stroke-opacity="0"></use></g></g><g><use xlink:href="#c7As8MzCIW" opacity="1" fill="#000000" fill-opacity="1"></use><g><use xlink:href="#c7As8MzCIW" opacity="1" fill-opacity="0" stroke="#000000" stroke-width="1" stroke-opacity="0"></use></g></g><g><use xlink:href="#c4Hf2Iutb" opacity="1" fill="#000000" fill-opacity="0"></use><g><use xlink:href="#c4Hf2Iutb" opacity="1" fill-opacity="0" stroke="#000000" stroke-width="1" stroke-opacity="0"></use></g></g><g><use xlink:href="#a2E7iTIYEC" opacity="1" fill="#000000" fill-opacity="0"></use><g><use xlink:href="#a2E7iTIYEC" opacity="1" fill-opacity="0" stroke="#000000" stroke-width="1" stroke-opacity="0"></use></g></g><g><use xlink:href="#c2dYBUy0WB" opacity="1" fill="#000000" fill-opacity="0"></use><g><use xlink:href="#c2dYBUy0WB" opacity="1" fill-opacity="0" stroke="#000000" stroke-width="1" stroke-opacity="0"></use></g></g><g><use xlink:href="#bBVGHybEZ" opacity="1" fill="#000000" fill-opacity="1"></use><g><use xlink:href="#bBVGHybEZ" opacity="1" fill-opacity="0" stroke="#000000" stroke-width="1" stroke-opacity="0"></use></g></g><g><use xlink:href="#b1uwrfyXW" opacity="1" fill="#000000" fill-opacity="0"></use><g><use xlink:href="#b1uwrfyXW" opacity="1" fill-opacity="0" stroke="#000000" stroke-width="1" stroke-opacity="0"></use></g></g><g><use xlink:href="#cbhHyTeQ3" opacity="1" fill="#000000" fill-opacity="0"></use><g><use xlink:href="#cbhHyTeQ3" opacity="1" fill-opacity="0" stroke="#000000" stroke-width="1" stroke-opacity="0"></use></g></g><g><use xlink:href="#cMmydp7g1" opacity="1" fill="#000000" fill-opacity="0"></use><g><use xlink:href="#cMmydp7g1" opacity="1" fill-opacity="0" stroke="#000000" stroke-width="1" stroke-opacity="0"></use></g></g><g><use xlink:href="#a2NSWYJDWt" opacity="1" fill="#f8d00d" fill-opacity="1"></use><g><use xlink:href="#a2NSWYJDWt" opacity="1" fill-opacity="0" stroke="#000000" stroke-width="1" stroke-opacity="0"></use></g></g><g><use xlink:href="#a3NF4RiQN0" opacity="1" fill="#000000" fill-opacity="0"></use><g><use xlink:href="#a3NF4RiQN0" opacity="1" fill-opacity="0" stroke="#000000" stroke-width="1" stroke-opacity="0"></use></g></g><g><use xlink:href="#b6cDDxiCwZ" opacity="1" fill="#000000" fill-opacity="0"></use><g><use xlink:href="#b6cDDxiCwZ" opacity="1" fill-opacity="0" stroke="#000000" stroke-width="1" stroke-opacity="0"></use></g></g><g><use xlink:href="#g1n5ygbEq7" opacity="1" fill="#000000" fill-opacity="0"></use><g><use xlink:href="#g1n5ygbEq7" opacity="1" fill-opacity="0" stroke="#000000" stroke-width="1" stroke-opacity="0"></use></g></g><g><use xlink:href="#asGpyjIQ3" opacity="1" fill="#f8d00d" fill-opacity="1"></use><g><use xlink:href="#asGpyjIQ3" opacity="1" fill-opacity="0" stroke="#000000" stroke-width="1" stroke-opacity="0"></use></g></g><g><use xlink:href="#a198UV6Vgk" opacity="1" fill="#000000" fill-opacity="0"></use><g><use xlink:href="#a198UV6Vgk" opacity="1" fill-opacity="0" stroke="#000000" stroke-width="1" stroke-opacity="0"></use></g></g><g><use xlink:href="#dBNVLGSaY" opacity="1" fill="#000000" fill-opacity="0"></use><g><use xlink:href="#dBNVLGSaY" opacity="1" fill-opacity="0" stroke="#000000" stroke-width="1" stroke-opacity="0"></use></g></g><g><use xlink:href="#cnKkQbyuj" opacity="1" fill="#000000" fill-opacity="0"></use><g><use xlink:href="#cnKkQbyuj" opacity="1" fill-opacity="0" stroke="#000000" stroke-width="1" stroke-opacity="0"></use></g></g><g><use xlink:href="#f47qyzx1GE" opacity="1" fill="#f8d00d" fill-opacity="1"></use><g><use xlink:href="#f47qyzx1GE" opacity="1" fill-opacity="0" stroke="#000000" stroke-width="1" stroke-opacity="0"></use></g></g><g><use xlink:href="#a4LWoALyHm" opacity="1" fill="#000000" fill-opacity="0"></use><g><use xlink:href="#a4LWoALyHm" opacity="1" fill-opacity="0" stroke="#000000" stroke-width="1" stroke-opacity="0"></use></g></g><g><use xlink:href="#e1tD98qt70" opacity="1" fill="#000000" fill-opacity="0"></use><g><use xlink:href="#e1tD98qt70" opacity="1" fill-opacity="0" stroke="#000000" stroke-width="1" stroke-opacity="0"></use></g></g><g><use xlink:href="#cGG8Va6sv" opacity="1" fill="#000000" fill-opacity="0"></use><g><use xlink:href="#cGG8Va6sv" opacity="1" fill-opacity="0" stroke="#000000" stroke-width="1" stroke-opacity="0"></use></g></g><g><use xlink:href="#avNOMZAEY" opacity="1" fill="#f8d00d" fill-opacity="1"></use><g><use xlink:href="#avNOMZAEY" opacity="1" fill-opacity="0" stroke="#000000" stroke-width="1" stroke-opacity="0"></use></g></g><g><use xlink:href="#b6xenc1jlJ" opacity="1" fill="#000000" fill-opacity="0"></use><g><use xlink:href="#b6xenc1jlJ" opacity="1" fill-opacity="0" stroke="#000000" stroke-width="1" stroke-opacity="0"></use></g></g><g><use xlink:href="#a5QGChGSNT" opacity="1" fill="#000000" fill-opacity="0"></use><g><use xlink:href="#a5QGChGSNT" opacity="1" fill-opacity="0" stroke="#000000" stroke-width="1" stroke-opacity="0"></use></g></g><g><use xlink:href="#g5bYoEkLQt" opacity="1" fill="#000000" fill-opacity="0"></use><g><use xlink:href="#g5bYoEkLQt" opacity="1" fill-opacity="0" stroke="#000000" stroke-width="1" stroke-opacity="0"></use></g></g></g></svg>