<?xml version="1.0" encoding="UTF-8" standalone="no"?>
<!DOCTYPE svg PUBLIC "-//W3C//DTD SVG 1.1//EN" "http://www.w3.org/Graphics/SVG/1.1/DTD/svg11.dtd">
<svg version="1.1" xmlns="http://www.w3.org/2000/svg" xmlns:xlink="http://www.w3.org/1999/xlink" preserveAspectRatio="xMidYMid meet" viewBox="44.739999999999995 44.75 71.46000000000002 71.45000000000002" width="67.46" height="67.45"><defs><path d="M80.79 48.39L107.4 47.33L110.56 48.39L111.75 110.57L107.27 111.36L101.16 110.57L100.02 106.62L103.05 105.3L104.77 102.8L103.98 99.38L107.56 96.93L106.67 92.53L103.05 92.66L103.32 89.5C102.21 88.31 101.59 87.65 101.47 87.52C99.26 86.88 98.04 86.53 97.79 86.46C86.01 86.46 79.46 86.46 78.15 86.46C78.15 86.46 73.31 87.36 75.39 85.28C74.35 81.42 71.76 71.79 67.62 56.39C69.2 55.73 73.15 54.07 79.47 51.42C79.65 51.02 80.09 50.01 80.79 48.39Z" id="cfzGjUAgB"></path><path d="M80.79 48.39L107.4 47.33L110.56 48.39L111.75 110.57L107.27 111.36L101.16 110.57L100.02 106.62L103.05 105.3L104.77 102.8L103.98 99.38L107.56 96.93L106.67 92.53L103.05 92.66L103.32 89.5C102.21 88.31 101.59 87.65 101.47 87.52C99.26 86.88 98.04 86.53 97.79 86.46C86.01 86.46 79.46 86.46 78.15 86.46C78.15 86.46 73.31 87.36 75.39 85.28C74.35 81.42 71.76 71.79 67.62 56.39C69.2 55.73 73.15 54.07 79.47 51.42C79.65 51.02 80.09 50.01 80.79 48.39Z" id="aN4mQ4zX2"></path><path d="M80.79 48.39L107.4 47.33L110.56 48.39L111.75 110.57L107.27 111.36L101.16 110.57L100.02 106.62L103.05 105.3L104.77 102.8L103.98 99.38L107.56 96.93L106.67 92.53L103.05 92.66L103.32 89.5C102.21 88.31 101.59 87.65 101.47 87.52C99.26 86.88 98.04 86.53 97.79 86.46C86.01 86.46 79.46 86.46 78.15 86.46C78.15 86.46 73.31 87.36 75.39 85.28C74.35 81.42 71.76 71.79 67.62 56.39C69.2 55.73 73.15 54.07 79.47 51.42C79.65 51.02 80.09 50.01 80.79 48.39Z" id="dfYrsG7lf"></path><path d="M80.79 48.39L107.4 47.33L110.56 48.39L111.75 110.57L107.27 111.36L101.16 110.57L100.02 106.62L103.05 105.3L104.77 102.8L103.98 99.38L107.56 96.93L106.67 92.53L103.05 92.66L103.32 89.5C102.21 88.31 101.59 87.65 101.47 87.52C99.26 86.88 98.04 86.53 97.79 86.46C86.01 86.46 79.46 86.46 78.15 86.46C78.15 86.46 73.31 87.36 75.39 85.28C74.35 81.42 71.76 71.79 67.62 56.39C69.2 55.73 73.15 54.07 79.47 51.42C79.65 51.02 80.09 50.01 80.79 48.39Z" id="ac1wwtFwr"></path><path d="M56.95 107.55C57.2 107.3 57.34 106.97 57.34 106.62C57.34 106.27 57.2 105.94 56.95 105.69C56.44 105.17 55.6 105.17 55.09 105.69C54.58 106.2 54.58 107.04 55.09 107.55C55.61 108.06 56.44 108.06 56.95 107.55Z" id="c72ekVbw4s"></path><path d="M56.95 107.55C57.2 107.3 57.34 106.97 57.34 106.62C57.34 106.27 57.2 105.94 56.95 105.69C56.44 105.17 55.6 105.17 55.09 105.69C54.58 106.2 54.58 107.04 55.09 107.55C55.61 108.06 56.44 108.06 56.95 107.55Z" id="a1gTwAgOCf"></path><path d="M56.95 107.55C57.2 107.3 57.34 106.97 57.34 106.62C57.34 106.27 57.2 105.94 56.95 105.69C56.44 105.17 55.6 105.17 55.09 105.69C54.58 106.2 54.58 107.04 55.09 107.55C55.61 108.06 56.44 108.06 56.95 107.55Z" id="b1o7GKXIeL"></path><path d="M56.95 107.55C57.2 107.3 57.34 106.97 57.34 106.62C57.34 106.27 57.2 105.94 56.95 105.69C56.44 105.17 55.6 105.17 55.09 105.69C54.58 106.2 54.58 107.04 55.09 107.55C55.61 108.06 56.44 108.06 56.95 107.55Z" id="f1xLfZjPWu"></path><path d="M107.6 71.71C107.85 71.46 107.99 71.13 107.99 70.78C107.99 70.43 107.85 70.1 107.6 69.85C107.09 69.34 106.25 69.34 105.74 69.86C105.23 70.37 105.23 71.2 105.75 71.71C106.26 72.23 107.09 72.22 107.6 71.71Z" id="a14lnmmiDh"></path><path d="M107.6 71.71C107.85 71.46 107.99 71.13 107.99 70.78C107.99 70.43 107.85 70.1 107.6 69.85C107.09 69.34 106.25 69.34 105.74 69.86C105.23 70.37 105.23 71.2 105.75 71.71C106.26 72.23 107.09 72.22 107.6 71.71Z" id="a1rPSnaqm4"></path><path d="M107.6 71.71C107.85 71.46 107.99 71.13 107.99 70.78C107.99 70.43 107.85 70.1 107.6 69.85C107.09 69.34 106.25 69.34 105.74 69.86C105.23 70.37 105.23 71.2 105.75 71.71C106.26 72.23 107.09 72.22 107.6 71.71Z" id="c4nXGQldrd"></path><path d="M107.6 71.71C107.85 71.46 107.99 71.13 107.99 70.78C107.99 70.43 107.85 70.1 107.6 69.85C107.09 69.34 106.25 69.34 105.74 69.86C105.23 70.37 105.23 71.2 105.75 71.71C106.26 72.23 107.09 72.22 107.6 71.71Z" id="acYJGR8NE"></path><path d="M78.15 47.07C78.15 47.32 78.15 48.58 78.15 50.84C70.66 52.84 66.5 53.96 65.66 54.18C64.96 54.37 64.55 55.1 64.74 55.8C65.17 57.41 67.32 65.46 71.21 79.95C67.85 83.31 65.98 85.18 65.61 85.55C64.87 84.47 63.65 83.83 62.34 83.83C61.08 83.83 50.96 83.83 49.7 83.83C47.51 83.83 45.74 85.6 45.74 87.78C45.74 89.93 45.74 107.1 45.74 109.25C45.75 111.43 47.51 113.2 49.69 113.2C50.96 113.2 61.08 113.2 62.34 113.2C64.16 113.2 65.74 111.96 66.18 110.2C66.34 110.34 67.59 111.43 67.75 111.57C68.96 112.62 70.5 113.2 72.11 113.2C76.09 113.2 107.9 113.2 111.88 113.2C112.61 113.2 113.2 112.61 113.2 111.89C113.2 105.4 113.2 53.55 113.2 47.07C113.2 46.72 113.06 46.38 112.81 46.14C112.56 45.89 112.23 45.75 111.88 45.75C108.64 45.75 82.71 45.75 79.47 45.75C78.74 45.75 78.15 46.34 78.15 47.07ZM48.38 109.25C48.38 107.1 48.38 89.93 48.38 87.78C48.38 87.05 48.97 86.46 49.7 86.46C50.03 86.46 51.7 86.46 54.7 86.46C54.7 95.57 54.7 100.63 54.7 101.64C54.72 102.37 55.33 102.94 56.06 102.92C56.76 102.9 57.32 102.34 57.34 101.64C57.34 100.63 57.34 95.57 57.34 86.46C60.34 86.46 62.01 86.46 62.34 86.46C63.07 86.46 63.66 87.05 63.66 87.78C63.66 89.21 63.66 96.37 63.66 109.25C63.27 110.13 62.83 110.57 62.34 110.57C61.08 110.57 50.96 110.57 49.7 110.57C48.97 110.57 48.38 109.98 48.38 109.25ZM78.15 58.45C77.62 58.59 77.33 58.67 77.27 58.69C76.57 58.87 76.15 59.6 76.34 60.3C76.34 60.3 76.34 60.3 76.34 60.3C76.84 62.19 75.72 64.14 73.83 64.65C73.13 64.83 72.71 65.56 72.9 66.26C72.9 66.26 72.9 66.26 72.9 66.26C73.24 67.53 74.95 73.87 78.04 85.27C77.78 85.27 75.66 85.27 75.39 85.27C74.57 82.08 74.12 80.3 74.03 79.94C73.98 79.78 73.91 79.62 73.81 79.48C72.98 76.4 70.92 68.7 67.62 56.38C69.02 56 72.53 55.06 78.15 53.56C78.15 56.49 78.15 58.12 78.15 58.45ZM78.15 64.49C78.15 64.49 78.15 68.19 78.15 75.61C76.71 70.27 75.91 67.3 75.75 66.71C76.74 66.2 77.57 65.43 78.15 64.49ZM66.3 106.81C66.3 105.6 66.3 99.52 66.3 88.59C69.75 85.14 71.67 83.22 72.05 82.84C72.67 85.29 73.02 86.65 73.09 86.92C73.24 87.5 73.77 87.91 74.37 87.91C76.96 87.91 97.68 87.91 100.27 87.91C101.29 87.89 102.13 88.69 102.15 89.71C102.18 90.73 101.37 91.58 100.35 91.6C100.32 91.6 100.3 91.6 100.27 91.6C98.94 91.6 88.32 91.6 87 91.6C86.27 91.62 85.7 92.23 85.72 92.95C85.74 93.65 86.3 94.21 87 94.23C88.74 94.23 102.66 94.23 104.4 94.23C105.42 94.26 106.22 95.1 106.2 96.12C106.18 97.11 105.38 97.9 104.4 97.92C102.66 97.92 88.74 97.92 87 97.92C86.27 97.94 85.7 98.55 85.72 99.28C85.74 99.98 86.3 100.54 87 100.56C88.45 100.56 100.12 100.56 101.58 100.56C102.59 100.53 103.44 101.34 103.46 102.36C103.49 103.38 102.68 104.22 101.66 104.25C101.63 104.25 101.6 104.25 101.58 104.25C100.12 104.25 88.45 104.25 87 104.25C86.27 104.27 85.7 104.87 85.72 105.6C85.74 106.3 86.3 106.86 87 106.88C88.01 106.88 96.07 106.88 97.08 106.88C98.1 106.88 98.93 107.71 98.93 108.73C98.93 109.75 98.1 110.57 97.08 110.57C97.08 110.57 97.08 110.57 97.08 110.57C97.08 110.57 74.61 110.57 72.11 110.57C71.14 110.57 70.21 110.22 69.48 109.59C69.26 109.4 68.2 108.48 66.3 106.81ZM101.16 106.88C101.2 106.88 101.54 106.88 101.58 106.88C104.05 106.88 106.05 104.88 106.05 102.4C106.05 101.71 105.89 101.02 105.58 100.4C107.96 99.75 109.37 97.28 108.71 94.9C108.57 94.36 108.32 93.86 107.99 93.41C107.99 91.74 107.99 78.38 107.99 76.71C107.97 75.98 107.36 75.41 106.63 75.43C105.93 75.45 105.37 76.01 105.35 76.71C105.35 78.21 105.35 90.21 105.35 91.7C105.04 91.64 104.71 91.6 104.39 91.6C104.39 91.6 104.35 91.6 104.35 91.6C105.37 89.35 104.37 86.7 102.12 85.68C101.54 85.42 100.91 85.28 100.27 85.28C100.06 85.28 98.36 85.28 98.15 85.28C101.35 83.91 102.84 80.21 101.47 77.01C100.11 73.8 96.4 72.32 93.2 73.68C90 75.05 88.51 78.76 89.88 81.96C90.51 83.45 91.7 84.64 93.2 85.28C92.72 85.28 90.32 85.28 86 85.28C86 70.25 86 61.9 86 60.22C88.36 59.71 90.2 57.86 90.72 55.5C91.71 55.5 99.64 55.5 100.63 55.5C101.15 57.86 103 59.71 105.36 60.22C105.36 60.63 105.36 63.91 105.36 64.32C105.34 65.05 105.91 65.66 106.64 65.68C107.36 65.7 107.97 65.13 107.99 64.4C107.99 64.37 107.99 64.35 107.99 64.32C107.99 63.8 107.99 59.58 107.99 59.05C107.99 58.32 107.4 57.73 106.67 57.73C104.71 57.73 103.13 56.14 103.13 54.18C103.13 53.46 102.54 52.87 101.81 52.87C100.58 52.87 90.77 52.87 89.54 52.87C88.82 52.87 88.23 53.46 88.23 54.18C88.22 56.14 86.64 57.73 84.68 57.73C83.95 57.73 83.36 58.32 83.36 59.05C83.36 59.05 83.36 59.05 83.36 59.05C83.36 60.8 83.36 69.54 83.36 85.28C83.19 85.28 82.33 85.28 80.79 85.28C80.79 82.82 80.79 70.52 80.79 48.39L110.56 48.39C110.56 85.7 110.56 106.42 110.56 110.57C104.71 110.57 101.58 110.57 101.16 110.57C101.69 109.4 101.69 108.06 101.16 106.88ZM99.35 79.48C99.34 81.51 97.7 83.15 95.68 83.15C93.65 83.15 92.01 81.51 92.01 79.48C92.01 77.45 93.65 75.81 95.68 75.81C97.7 75.81 99.35 77.45 99.35 79.48Z" id="b1TLGqYMjG"></path><path d="M78.15 47.07C78.15 47.32 78.15 48.58 78.15 50.84C70.66 52.84 66.5 53.96 65.66 54.18C64.96 54.37 64.55 55.1 64.74 55.8C65.17 57.41 67.32 65.46 71.21 79.95C67.85 83.31 65.98 85.18 65.61 85.55C64.87 84.47 63.65 83.83 62.34 83.83C61.08 83.83 50.96 83.83 49.7 83.83C47.51 83.83 45.74 85.6 45.74 87.78C45.74 89.93 45.74 107.1 45.74 109.25C45.75 111.43 47.51 113.2 49.69 113.2C50.96 113.2 61.08 113.2 62.34 113.2C64.16 113.2 65.74 111.96 66.18 110.2C66.34 110.34 67.59 111.43 67.75 111.57C68.96 112.62 70.5 113.2 72.11 113.2C76.09 113.2 107.9 113.2 111.88 113.2C112.61 113.2 113.2 112.61 113.2 111.89C113.2 105.4 113.2 53.55 113.2 47.07C113.2 46.72 113.06 46.38 112.81 46.14C112.56 45.89 112.23 45.75 111.88 45.75C108.64 45.75 82.71 45.75 79.47 45.75C78.74 45.75 78.15 46.34 78.15 47.07ZM48.38 109.25C48.38 107.1 48.38 89.93 48.38 87.78C48.38 87.05 48.97 86.46 49.7 86.46C50.03 86.46 51.7 86.46 54.7 86.46C54.7 95.57 54.7 100.63 54.7 101.64C54.72 102.37 55.33 102.94 56.06 102.92C56.76 102.9 57.32 102.34 57.34 101.64C57.34 100.63 57.34 95.57 57.34 86.46C60.34 86.46 62.01 86.46 62.34 86.46C63.07 86.46 63.66 87.05 63.66 87.78C63.66 89.21 63.66 96.37 63.66 109.25C63.27 110.13 62.83 110.57 62.34 110.57C61.08 110.57 50.96 110.57 49.7 110.57C48.97 110.57 48.38 109.98 48.38 109.25ZM78.15 58.45C77.62 58.59 77.33 58.67 77.27 58.69C76.57 58.87 76.15 59.6 76.34 60.3C76.34 60.3 76.34 60.3 76.34 60.3C76.84 62.19 75.72 64.14 73.83 64.65C73.13 64.83 72.71 65.56 72.9 66.26C72.9 66.26 72.9 66.26 72.9 66.26C73.24 67.53 74.95 73.87 78.04 85.27C77.78 85.27 75.66 85.27 75.39 85.27C74.57 82.08 74.12 80.3 74.03 79.94C73.98 79.78 73.91 79.62 73.81 79.48C72.98 76.4 70.92 68.7 67.62 56.38C69.02 56 72.53 55.06 78.15 53.56C78.15 56.49 78.15 58.12 78.15 58.45ZM78.15 64.49C78.15 64.49 78.15 68.19 78.15 75.61C76.71 70.27 75.91 67.3 75.75 66.71C76.74 66.2 77.57 65.43 78.15 64.49ZM66.3 106.81C66.3 105.6 66.3 99.52 66.3 88.59C69.75 85.14 71.67 83.22 72.05 82.84C72.67 85.29 73.02 86.65 73.09 86.92C73.24 87.5 73.77 87.91 74.37 87.91C76.96 87.91 97.68 87.91 100.27 87.91C101.29 87.89 102.13 88.69 102.15 89.71C102.18 90.73 101.37 91.58 100.35 91.6C100.32 91.6 100.3 91.6 100.27 91.6C98.94 91.6 88.32 91.6 87 91.6C86.27 91.62 85.7 92.23 85.72 92.95C85.74 93.65 86.3 94.21 87 94.23C88.74 94.23 102.66 94.23 104.4 94.23C105.42 94.26 106.22 95.1 106.2 96.12C106.18 97.11 105.38 97.9 104.4 97.92C102.66 97.92 88.74 97.92 87 97.92C86.27 97.94 85.7 98.55 85.72 99.28C85.74 99.98 86.3 100.54 87 100.56C88.45 100.56 100.12 100.56 101.58 100.56C102.59 100.53 103.44 101.34 103.46 102.36C103.49 103.38 102.68 104.22 101.66 104.25C101.63 104.25 101.6 104.25 101.58 104.25C100.12 104.25 88.45 104.25 87 104.25C86.27 104.27 85.7 104.87 85.72 105.6C85.74 106.3 86.3 106.86 87 106.88C88.01 106.88 96.07 106.88 97.08 106.88C98.1 106.88 98.93 107.71 98.93 108.73C98.93 109.75 98.1 110.57 97.08 110.57C97.08 110.57 97.08 110.57 97.08 110.57C97.08 110.57 74.61 110.57 72.11 110.57C71.14 110.57 70.21 110.22 69.48 109.59C69.26 109.4 68.2 108.48 66.3 106.81ZM101.16 106.88C101.2 106.88 101.54 106.88 101.58 106.88C104.05 106.88 106.05 104.88 106.05 102.4C106.05 101.71 105.89 101.02 105.58 100.4C107.96 99.75 109.37 97.28 108.71 94.9C108.57 94.36 108.32 93.86 107.99 93.41C107.99 91.74 107.99 78.38 107.99 76.71C107.97 75.98 107.36 75.41 106.63 75.43C105.93 75.45 105.37 76.01 105.35 76.71C105.35 78.21 105.35 90.21 105.35 91.7C105.04 91.64 104.71 91.6 104.39 91.6C104.39 91.6 104.35 91.6 104.35 91.6C105.37 89.35 104.37 86.7 102.12 85.68C101.54 85.42 100.91 85.28 100.27 85.28C100.06 85.28 98.36 85.28 98.15 85.28C101.35 83.91 102.84 80.21 101.47 77.01C100.11 73.8 96.4 72.32 93.2 73.68C90 75.05 88.51 78.76 89.88 81.96C90.51 83.45 91.7 84.64 93.2 85.28C92.72 85.28 90.32 85.28 86 85.28C86 70.25 86 61.9 86 60.22C88.36 59.71 90.2 57.86 90.72 55.5C91.71 55.5 99.64 55.5 100.63 55.5C101.15 57.86 103 59.71 105.36 60.22C105.36 60.63 105.36 63.91 105.36 64.32C105.34 65.05 105.91 65.66 106.64 65.68C107.36 65.7 107.97 65.13 107.99 64.4C107.99 64.37 107.99 64.35 107.99 64.32C107.99 63.8 107.99 59.58 107.99 59.05C107.99 58.32 107.4 57.73 106.67 57.73C104.71 57.73 103.13 56.14 103.13 54.18C103.13 53.46 102.54 52.87 101.81 52.87C100.58 52.87 90.77 52.87 89.54 52.87C88.82 52.87 88.23 53.46 88.23 54.18C88.22 56.14 86.64 57.73 84.68 57.73C83.95 57.73 83.36 58.32 83.36 59.05C83.36 59.05 83.36 59.05 83.36 59.05C83.36 60.8 83.36 69.54 83.36 85.28C83.19 85.28 82.33 85.28 80.79 85.28C80.79 82.82 80.79 70.52 80.79 48.39L110.56 48.39C110.56 85.7 110.56 106.42 110.56 110.57C104.71 110.57 101.58 110.57 101.16 110.57C101.69 109.4 101.69 108.06 101.16 106.88ZM99.35 79.48C99.34 81.51 97.7 83.15 95.68 83.15C93.65 83.15 92.01 81.51 92.01 79.48C92.01 77.45 93.65 75.81 95.68 75.81C97.7 75.81 99.35 77.45 99.35 79.48Z" id="akdMfx8iC"></path><path d="M78.15 47.07C78.15 47.32 78.15 48.58 78.15 50.84C70.66 52.84 66.5 53.96 65.66 54.18C64.96 54.37 64.55 55.1 64.74 55.8C65.17 57.41 67.32 65.46 71.21 79.95C67.85 83.31 65.98 85.18 65.61 85.55C64.87 84.47 63.65 83.83 62.34 83.83C61.08 83.83 50.96 83.83 49.7 83.83C47.51 83.83 45.74 85.6 45.74 87.78C45.74 89.93 45.74 107.1 45.74 109.25C45.75 111.43 47.51 113.2 49.69 113.2C50.96 113.2 61.08 113.2 62.34 113.2C64.16 113.2 65.74 111.96 66.18 110.2C66.34 110.34 67.59 111.43 67.75 111.57C68.96 112.62 70.5 113.2 72.11 113.2C76.09 113.2 107.9 113.2 111.88 113.2C112.61 113.2 113.2 112.61 113.2 111.89C113.2 105.4 113.2 53.55 113.2 47.07C113.2 46.72 113.06 46.38 112.81 46.14C112.56 45.89 112.23 45.75 111.88 45.75C108.64 45.75 82.71 45.75 79.47 45.75C78.74 45.75 78.15 46.34 78.15 47.07ZM48.38 109.25C48.38 107.1 48.38 89.93 48.38 87.78C48.38 87.05 48.97 86.46 49.7 86.46C50.03 86.46 51.7 86.46 54.7 86.46C54.7 95.57 54.7 100.63 54.7 101.64C54.72 102.37 55.33 102.94 56.06 102.92C56.76 102.9 57.32 102.34 57.34 101.64C57.34 100.63 57.34 95.57 57.34 86.46C60.34 86.46 62.01 86.46 62.34 86.46C63.07 86.46 63.66 87.05 63.66 87.78C63.66 89.21 63.66 96.37 63.66 109.25C63.27 110.13 62.83 110.57 62.34 110.57C61.08 110.57 50.96 110.57 49.7 110.57C48.97 110.57 48.38 109.98 48.38 109.25ZM78.15 58.45C77.62 58.59 77.33 58.67 77.27 58.69C76.57 58.87 76.15 59.6 76.34 60.3C76.34 60.3 76.34 60.3 76.34 60.3C76.84 62.19 75.72 64.14 73.83 64.65C73.13 64.83 72.71 65.56 72.9 66.26C72.9 66.26 72.9 66.26 72.9 66.26C73.24 67.53 74.95 73.87 78.04 85.27C77.78 85.27 75.66 85.27 75.39 85.27C74.57 82.08 74.12 80.3 74.03 79.94C73.98 79.78 73.91 79.62 73.81 79.48C72.98 76.4 70.92 68.7 67.62 56.38C69.02 56 72.53 55.06 78.15 53.56C78.15 56.49 78.15 58.12 78.15 58.45ZM78.15 64.49C78.15 64.49 78.15 68.19 78.15 75.61C76.71 70.27 75.91 67.3 75.75 66.71C76.74 66.2 77.57 65.43 78.15 64.49ZM66.3 106.81C66.3 105.6 66.3 99.52 66.3 88.59C69.75 85.14 71.67 83.22 72.05 82.84C72.67 85.29 73.02 86.65 73.09 86.92C73.24 87.5 73.77 87.91 74.37 87.91C76.96 87.91 97.68 87.91 100.27 87.91C101.29 87.89 102.13 88.69 102.15 89.71C102.18 90.73 101.37 91.58 100.35 91.6C100.32 91.6 100.3 91.6 100.27 91.6C98.94 91.6 88.32 91.6 87 91.6C86.27 91.62 85.7 92.23 85.72 92.95C85.74 93.65 86.3 94.21 87 94.23C88.74 94.23 102.66 94.23 104.4 94.23C105.42 94.26 106.22 95.1 106.2 96.12C106.18 97.11 105.38 97.9 104.4 97.92C102.66 97.92 88.74 97.92 87 97.92C86.27 97.94 85.7 98.55 85.72 99.28C85.74 99.98 86.3 100.54 87 100.56C88.45 100.56 100.12 100.56 101.58 100.56C102.59 100.53 103.44 101.34 103.46 102.36C103.49 103.38 102.68 104.22 101.66 104.25C101.63 104.25 101.6 104.25 101.58 104.25C100.12 104.25 88.45 104.25 87 104.25C86.27 104.27 85.7 104.87 85.72 105.6C85.74 106.3 86.3 106.86 87 106.88C88.01 106.88 96.07 106.88 97.08 106.88C98.1 106.88 98.93 107.71 98.93 108.73C98.93 109.75 98.1 110.57 97.08 110.57C97.08 110.57 97.08 110.57 97.08 110.57C97.08 110.57 74.61 110.57 72.11 110.57C71.14 110.57 70.21 110.22 69.48 109.59C69.26 109.4 68.2 108.48 66.3 106.81ZM101.16 106.88C101.2 106.88 101.54 106.88 101.58 106.88C104.05 106.88 106.05 104.88 106.05 102.4C106.05 101.71 105.89 101.02 105.58 100.4C107.96 99.75 109.37 97.28 108.71 94.9C108.57 94.36 108.32 93.86 107.99 93.41C107.99 91.74 107.99 78.38 107.99 76.71C107.97 75.98 107.36 75.41 106.63 75.43C105.93 75.45 105.37 76.01 105.35 76.71C105.35 78.21 105.35 90.21 105.35 91.7C105.04 91.64 104.71 91.6 104.39 91.6C104.39 91.6 104.35 91.6 104.35 91.6C105.37 89.35 104.37 86.7 102.12 85.68C101.54 85.42 100.91 85.28 100.27 85.28C100.06 85.28 98.36 85.28 98.15 85.28C101.35 83.91 102.84 80.21 101.47 77.01C100.11 73.8 96.4 72.32 93.2 73.68C90 75.05 88.51 78.76 89.88 81.96C90.51 83.45 91.7 84.64 93.2 85.28C92.72 85.28 90.32 85.28 86 85.28C86 70.25 86 61.9 86 60.22C88.36 59.71 90.2 57.86 90.72 55.5C91.71 55.5 99.64 55.5 100.63 55.5C101.15 57.86 103 59.71 105.36 60.22C105.36 60.63 105.36 63.91 105.36 64.32C105.34 65.05 105.91 65.66 106.64 65.68C107.36 65.7 107.97 65.13 107.99 64.4C107.99 64.37 107.99 64.35 107.99 64.32C107.99 63.8 107.99 59.58 107.99 59.05C107.99 58.32 107.4 57.73 106.67 57.73C104.71 57.73 103.13 56.14 103.13 54.18C103.13 53.46 102.54 52.87 101.81 52.87C100.58 52.87 90.77 52.87 89.54 52.87C88.82 52.87 88.23 53.46 88.23 54.18C88.22 56.14 86.64 57.73 84.68 57.73C83.95 57.73 83.36 58.32 83.36 59.05C83.36 59.05 83.36 59.05 83.36 59.05C83.36 60.8 83.36 69.54 83.36 85.28C83.19 85.28 82.33 85.28 80.79 85.28C80.79 82.82 80.79 70.52 80.79 48.39L110.56 48.39C110.56 85.7 110.56 106.42 110.56 110.57C104.71 110.57 101.58 110.57 101.16 110.57C101.69 109.4 101.69 108.06 101.16 106.88ZM99.35 79.48C99.34 81.51 97.7 83.15 95.68 83.15C93.65 83.15 92.01 81.51 92.01 79.48C92.01 77.45 93.65 75.81 95.68 75.81C97.7 75.81 99.35 77.45 99.35 79.48Z" id="a489KU4ADN"></path><path d="M78.15 47.07C78.15 47.32 78.15 48.58 78.15 50.84C70.66 52.84 66.5 53.96 65.66 54.18C64.96 54.37 64.55 55.1 64.74 55.8C65.17 57.41 67.32 65.46 71.21 79.95C67.85 83.31 65.98 85.18 65.61 85.55C64.87 84.47 63.65 83.83 62.34 83.83C61.08 83.83 50.96 83.83 49.7 83.83C47.51 83.83 45.74 85.6 45.74 87.78C45.74 89.93 45.74 107.1 45.74 109.25C45.75 111.43 47.51 113.2 49.69 113.2C50.96 113.2 61.08 113.2 62.34 113.2C64.16 113.2 65.74 111.96 66.18 110.2C66.34 110.34 67.59 111.43 67.75 111.57C68.96 112.62 70.5 113.2 72.11 113.2C76.09 113.2 107.9 113.2 111.88 113.2C112.61 113.2 113.2 112.61 113.2 111.89C113.2 105.4 113.2 53.55 113.2 47.07C113.2 46.72 113.06 46.38 112.81 46.14C112.56 45.89 112.23 45.75 111.88 45.75C108.64 45.75 82.71 45.75 79.47 45.75C78.74 45.75 78.15 46.34 78.15 47.07ZM48.38 109.25C48.38 107.1 48.38 89.93 48.38 87.78C48.38 87.05 48.97 86.46 49.7 86.46C50.03 86.46 51.7 86.46 54.7 86.46C54.7 95.57 54.7 100.63 54.7 101.64C54.72 102.37 55.33 102.94 56.06 102.92C56.76 102.9 57.32 102.34 57.34 101.64C57.34 100.63 57.34 95.57 57.34 86.46C60.34 86.46 62.01 86.46 62.34 86.46C63.07 86.46 63.66 87.05 63.66 87.78C63.66 89.21 63.66 96.37 63.66 109.25C63.27 110.13 62.83 110.57 62.34 110.57C61.08 110.57 50.96 110.57 49.7 110.57C48.97 110.57 48.38 109.98 48.38 109.25ZM78.15 58.45C77.62 58.59 77.33 58.67 77.27 58.69C76.57 58.87 76.15 59.6 76.34 60.3C76.34 60.3 76.34 60.3 76.34 60.3C76.84 62.19 75.72 64.14 73.83 64.65C73.13 64.83 72.71 65.56 72.9 66.26C72.9 66.26 72.9 66.26 72.9 66.26C73.24 67.53 74.95 73.87 78.04 85.27C77.78 85.27 75.66 85.27 75.39 85.27C74.57 82.08 74.12 80.3 74.03 79.94C73.98 79.78 73.91 79.62 73.81 79.48C72.98 76.4 70.92 68.7 67.62 56.38C69.02 56 72.53 55.06 78.15 53.56C78.15 56.49 78.15 58.12 78.15 58.45ZM78.15 64.49C78.15 64.49 78.15 68.19 78.15 75.61C76.71 70.27 75.91 67.3 75.75 66.71C76.74 66.2 77.57 65.43 78.15 64.49ZM66.3 106.81C66.3 105.6 66.3 99.52 66.3 88.59C69.75 85.14 71.67 83.22 72.05 82.84C72.67 85.29 73.02 86.65 73.09 86.92C73.24 87.5 73.77 87.91 74.37 87.91C76.96 87.91 97.68 87.91 100.27 87.91C101.29 87.89 102.13 88.69 102.15 89.71C102.18 90.73 101.37 91.58 100.35 91.6C100.32 91.6 100.3 91.6 100.27 91.6C98.94 91.6 88.32 91.6 87 91.6C86.27 91.62 85.7 92.23 85.72 92.95C85.74 93.65 86.3 94.21 87 94.23C88.74 94.23 102.66 94.23 104.4 94.23C105.42 94.26 106.22 95.1 106.2 96.12C106.18 97.11 105.38 97.9 104.4 97.92C102.66 97.92 88.74 97.92 87 97.92C86.27 97.94 85.7 98.55 85.72 99.28C85.74 99.98 86.3 100.54 87 100.56C88.45 100.56 100.12 100.56 101.58 100.56C102.59 100.53 103.44 101.34 103.46 102.36C103.49 103.38 102.68 104.22 101.66 104.25C101.63 104.25 101.6 104.25 101.58 104.25C100.12 104.25 88.45 104.25 87 104.25C86.27 104.27 85.7 104.87 85.72 105.6C85.74 106.3 86.3 106.86 87 106.88C88.01 106.88 96.07 106.88 97.08 106.88C98.1 106.88 98.93 107.71 98.93 108.73C98.93 109.75 98.1 110.57 97.08 110.57C97.08 110.57 97.08 110.57 97.08 110.57C97.08 110.57 74.61 110.57 72.11 110.57C71.14 110.57 70.21 110.22 69.48 109.59C69.26 109.4 68.2 108.48 66.3 106.81ZM101.16 106.88C101.2 106.88 101.54 106.88 101.58 106.88C104.05 106.88 106.05 104.88 106.05 102.4C106.05 101.71 105.89 101.02 105.58 100.4C107.96 99.75 109.37 97.28 108.71 94.9C108.57 94.36 108.32 93.86 107.99 93.41C107.99 91.74 107.99 78.38 107.99 76.71C107.97 75.98 107.36 75.41 106.63 75.43C105.93 75.45 105.37 76.01 105.35 76.71C105.35 78.21 105.35 90.21 105.35 91.7C105.04 91.64 104.71 91.6 104.39 91.6C104.39 91.6 104.35 91.6 104.35 91.6C105.37 89.35 104.37 86.7 102.12 85.68C101.54 85.42 100.91 85.28 100.27 85.28C100.06 85.28 98.36 85.28 98.15 85.28C101.35 83.91 102.84 80.21 101.47 77.01C100.11 73.8 96.4 72.32 93.2 73.68C90 75.05 88.51 78.76 89.88 81.96C90.51 83.45 91.7 84.64 93.2 85.28C92.72 85.28 90.32 85.28 86 85.28C86 70.25 86 61.9 86 60.22C88.36 59.71 90.2 57.86 90.72 55.5C91.71 55.5 99.64 55.5 100.63 55.5C101.15 57.86 103 59.71 105.36 60.22C105.36 60.63 105.36 63.91 105.36 64.32C105.34 65.05 105.91 65.66 106.64 65.68C107.36 65.7 107.97 65.13 107.99 64.4C107.99 64.37 107.99 64.35 107.99 64.32C107.99 63.8 107.99 59.58 107.99 59.05C107.99 58.32 107.4 57.73 106.67 57.73C104.71 57.73 103.13 56.14 103.13 54.18C103.13 53.46 102.54 52.87 101.81 52.87C100.58 52.87 90.77 52.87 89.54 52.87C88.82 52.87 88.23 53.46 88.23 54.18C88.22 56.14 86.64 57.73 84.68 57.73C83.95 57.73 83.36 58.32 83.36 59.05C83.36 59.05 83.36 59.05 83.36 59.05C83.36 60.8 83.36 69.54 83.36 85.28C83.19 85.28 82.33 85.28 80.79 85.28C80.79 82.82 80.79 70.52 80.79 48.39L110.56 48.39C110.56 85.7 110.56 106.42 110.56 110.57C104.71 110.57 101.58 110.57 101.16 110.57C101.69 109.4 101.69 108.06 101.16 106.88ZM99.35 79.48C99.34 81.51 97.7 83.15 95.68 83.15C93.65 83.15 92.01 81.51 92.01 79.48C92.01 77.45 93.65 75.81 95.68 75.81C97.7 75.81 99.35 77.45 99.35 79.48Z" id="e27lF5RWUd"></path></defs><g><g><use xlink:href="#cfzGjUAgB" opacity="1" fill="#f8d00d" fill-opacity="1"></use><g><use xlink:href="#cfzGjUAgB" opacity="1" fill-opacity="0" stroke="#000000" stroke-width="1" stroke-opacity="0"></use></g></g><g><use xlink:href="#aN4mQ4zX2" opacity="1" fill="#000000" fill-opacity="0"></use><g><use xlink:href="#aN4mQ4zX2" opacity="1" fill-opacity="0" stroke="#000000" stroke-width="1" stroke-opacity="0"></use></g></g><g><use xlink:href="#dfYrsG7lf" opacity="1" fill="#000000" fill-opacity="0"></use><g><use xlink:href="#dfYrsG7lf" opacity="1" fill-opacity="0" stroke="#000000" stroke-width="1" stroke-opacity="0"></use></g></g><g><use xlink:href="#ac1wwtFwr" opacity="1" fill="#000000" fill-opacity="0"></use><g><use xlink:href="#ac1wwtFwr" opacity="1" fill-opacity="0" stroke="#000000" stroke-width="1" stroke-opacity="0"></use></g></g><g><use xlink:href="#c72ekVbw4s" opacity="1" fill="#000000" fill-opacity="1"></use><g><use xlink:href="#c72ekVbw4s" opacity="1" fill-opacity="0" stroke="#000000" stroke-width="1" stroke-opacity="0"></use></g></g><g><use xlink:href="#a1gTwAgOCf" opacity="1" fill="#000000" fill-opacity="0"></use><g><use xlink:href="#a1gTwAgOCf" opacity="1" fill-opacity="0" stroke="#000000" stroke-width="1" stroke-opacity="0"></use></g></g><g><use xlink:href="#b1o7GKXIeL" opacity="1" fill="#000000" fill-opacity="0"></use><g><use xlink:href="#b1o7GKXIeL" opacity="1" fill-opacity="0" stroke="#000000" stroke-width="1" stroke-opacity="0"></use></g></g><g><use xlink:href="#f1xLfZjPWu" opacity="1" fill="#000000" fill-opacity="0"></use><g><use xlink:href="#f1xLfZjPWu" opacity="1" fill-opacity="0" stroke="#000000" stroke-width="1" stroke-opacity="0"></use></g></g><g><use xlink:href="#a14lnmmiDh" opacity="1" fill="#000000" fill-opacity="1"></use><g><use xlink:href="#a14lnmmiDh" opacity="1" fill-opacity="0" stroke="#000000" stroke-width="1" stroke-opacity="0"></use></g></g><g><use xlink:href="#a1rPSnaqm4" opacity="1" fill="#000000" fill-opacity="0"></use><g><use xlink:href="#a1rPSnaqm4" opacity="1" fill-opacity="0" stroke="#000000" stroke-width="1" stroke-opacity="0"></use></g></g><g><use xlink:href="#c4nXGQldrd" opacity="1" fill="#000000" fill-opacity="0"></use><g><use xlink:href="#c4nXGQldrd" opacity="1" fill-opacity="0" stroke="#000000" stroke-width="1" stroke-opacity="0"></use></g></g><g><use xlink:href="#acYJGR8NE" opacity="1" fill="#000000" fill-opacity="0"></use><g><use xlink:href="#acYJGR8NE" opacity="1" fill-opacity="0" stroke="#000000" stroke-width="1" stroke-opacity="0"></use></g></g><g><use xlink:href="#b1TLGqYMjG" opacity="1" fill="#000000" fill-opacity="1"></use><g><use xlink:href="#b1TLGqYMjG" opacity="1" fill-opacity="0" stroke="#000000" stroke-width="1" stroke-opacity="0"></use></g></g><g><use xlink:href="#akdMfx8iC" opacity="1" fill="#000000" fill-opacity="0"></use><g><use xlink:href="#akdMfx8iC" opacity="1" fill-opacity="0" stroke="#000000" stroke-width="1" stroke-opacity="0"></use></g></g><g><use xlink:href="#a489KU4ADN" opacity="1" fill="#000000" fill-opacity="0"></use><g><use xlink:href="#a489KU4ADN" opacity="1" fill-opacity="0" stroke="#000000" stroke-width="1" stroke-opacity="0"></use></g></g><g><use xlink:href="#e27lF5RWUd" opacity="1" fill="#000000" fill-opacity="0"></use><g><use xlink:href="#e27lF5RWUd" opacity="1" fill-opacity="0" stroke="#000000" stroke-width="1" stroke-opacity="0"></use></g></g></g></svg>