<svg id="Group_3317" data-name="Group 3317" xmlns="http://www.w3.org/2000/svg" xmlns:xlink="http://www.w3.org/1999/xlink" width="43.121" height="60.295" viewBox="0 0 43.121 60.295">
  <defs>
    <clipPath id="clip-path">
      <rect id="Rectangle_5064" data-name="Rectangle 5064" width="43.121" height="60.295" fill="none"/>
    </clipPath>
  </defs>
  <path id="Path_13730" data-name="Path 13730" d="M15.42,306.26,10,300.841l6.071-6.071L34.4,313.1l-6.071,6.071-5.419-5.419Z" transform="translate(-8.823 -260.057)" fill="#f8d00d"/>
  <g id="Group_3316" data-name="Group 3316">
    <g id="Group_3315" data-name="Group 3315" clip-path="url(#clip-path)">
      <path id="Path_13731" data-name="Path 13731" d="M101.295,38.686a1.178,1.178,0,1,0,1.665-1.666l-2.667-2.667a1.178,1.178,0,0,0-1.666,1.666Z" transform="translate(-86.709 -30.004)"/>
      <path id="Path_13732" data-name="Path 13732" d="M216.417,39.03a1.174,1.174,0,0,0,.833-.345l2.667-2.667a1.178,1.178,0,0,0-1.666-1.666l-2.667,2.667a1.178,1.178,0,0,0,.833,2.01" transform="translate(-189.892 -30.003)"/>
      <path id="Path_13733" data-name="Path 13733" d="M169.262,6.126a1.178,1.178,0,0,0,1.178-1.178V1.178a1.178,1.178,0,0,0-2.355,0V4.949a1.178,1.178,0,0,0,1.178,1.178" transform="translate(-148.29)"/>
      <path id="Path_13734" data-name="Path 13734" d="M41.883,87.836a4.21,4.21,0,0,0-1.714-1.044A4.232,4.232,0,0,0,37.577,80.3a4.237,4.237,0,0,0-2.622-5.44l4.867-4.867a4.229,4.229,0,0,0-.038-6.017,4.285,4.285,0,0,0-6,.094L20.927,76.931q-.146-.9-.293-1.806a8.784,8.784,0,0,0-3.4-5.635,2.76,2.76,0,0,0-4.415,1.987L11.91,82.836A9.228,9.228,0,0,1,9.24,88.619l-.912.912-.246-.246a1.178,1.178,0,0,0-1.665,0L.345,95.355a1.178,1.178,0,0,0,0,1.665l5.419,5.419a1.178,1.178,0,1,0,1.666-1.666L2.843,96.188l4.406-4.405L23.916,108.45l-4.405,4.405-4.587-4.587a1.178,1.178,0,1,0-1.666,1.666l5.419,5.419a1.178,1.178,0,0,0,1.665,0l6.071-6.071a1.178,1.178,0,0,0,0-1.666l-.239-.239a7.366,7.366,0,0,1,1.16-.864l2.466-1.479a20.345,20.345,0,0,0,3.922-3.061l8.16-8.16a4.229,4.229,0,0,0,0-5.979ZM40.218,92.15l-8.16,8.16a17.982,17.982,0,0,1-3.468,2.707L26.124,104.5a9.729,9.729,0,0,0-1.617,1.216L9.993,91.2l.912-.912a11.586,11.586,0,0,0,3.353-7.26l.909-11.358a.391.391,0,0,1,.111-.253.409.409,0,0,1,.54-.041A6.439,6.439,0,0,1,18.31,75.5q.332,2.04.661,4.077a1.178,1.178,0,0,0,2,.645L35.452,65.737a1.922,1.922,0,0,1,2.688-.073,1.874,1.874,0,0,1,.017,2.665L26.894,79.592a1.178,1.178,0,1,0,1.665,1.665l3.714-3.714a1.872,1.872,0,0,1,3.2,1.326,1.855,1.855,0,0,1-.548,1.322l-3.714,3.714a1.178,1.178,0,1,0,1.665,1.666l2.465-2.465a1.873,1.873,0,0,1,2.648,2.648l-2.465,2.465a1.178,1.178,0,1,0,1.665,1.666l.383-.383a1.873,1.873,0,0,1,2.648,2.648Z" transform="translate(0 -55.404)"/>
      <path id="Path_13735" data-name="Path 13735" d="M79.018,414.161a1.178,1.178,0,1,1-1.178,1.178,1.178,1.178,0,0,1,1.178-1.178" transform="translate(-68.673 -365.388)"/>
    </g>
  </g>
</svg>
