<svg xmlns="http://www.w3.org/2000/svg" width="49.689" height="57.244" viewBox="0 0 49.689 57.244">
  <g id="Group_467" data-name="Group 467" transform="translate(0)">
    <ellipse id="Ellipse_15" data-name="Ellipse 15" cx="12.882" cy="12.882" rx="12.882" ry="12.882" transform="translate(16.078 13.096)" fill="#f8d00d"/>
    <g id="Group_466" data-name="Group 466" transform="translate(0)">
      <path id="Path_201" data-name="Path 201" d="M-304.723-336.22a50.329,50.329,0,0,1-18.77-3.615l-.343-.137-.342.137a50.334,50.334,0,0,1-18.771,3.615H-345V-316.9h-4.6a2.764,2.764,0,0,0-2.76,2.76V-298.5a2.764,2.764,0,0,0,2.76,2.76h8.286a23.889,23.889,0,0,0,8.776,8.263l8.7,4.747,8.7-4.747a23.9,23.9,0,0,0,12.461-20.993v-27.76Zm-45.8,37.726v-15.643a.921.921,0,0,1,.92-.92h8.281a.921.921,0,0,1,.92.92v15.643a.921.921,0,0,1-.92.92H-349.6a.921.921,0,0,1-.653-.268.921.921,0,0,1-.271-.652Zm11.963-13.811a5.848,5.848,0,0,0,5.521-5.832v-4.741a2.3,2.3,0,0,1,2.3-2.3,2.3,2.3,0,0,1,2.3,2.3v5.791a2.953,2.953,0,0,0,2.95,2.95h6.746a3.19,3.19,0,0,1,3.187,3.187v10.19a3.19,3.19,0,0,1-3.191,3.19H-332.3a2.177,2.177,0,0,1-1.813-.97,4.012,4.012,0,0,0-3.35-1.787h-1.09V-312.3Zm34.046,3.844a22.057,22.057,0,0,1-11.5,19.375l-7.822,4.267-7.822-4.267a22.069,22.069,0,0,1-7.9-7.3,2.741,2.741,0,0,0,.977-1.923,20.142,20.142,0,0,0,7.8,7.611l6.941,3.787,6.941-3.787a20.212,20.212,0,0,0,10.542-17.755v-13.958h-1.84v13.958a18.377,18.377,0,0,1-9.583,16.142l-6.06,3.305-6.06-3.305a18.313,18.313,0,0,1-6.409-5.831,2.16,2.16,0,0,1,.661.625,4.012,4.012,0,0,0,3.35,1.787h13.557a5.033,5.033,0,0,0,5.025-5.025v-10.19a5.033,5.033,0,0,0-5.025-5.025h-6.757a1.117,1.117,0,0,1-1.11-1.11v-5.791a4.146,4.146,0,0,0-4.138-4.146,4.146,4.146,0,0,0-4.141,4.141v4.74a3.992,3.992,0,0,1-3.685,3.969,2.743,2.743,0,0,0-.917-2.01v-14.628a55.791,55.791,0,0,0,15.643-3.252,55.8,55.8,0,0,0,15.643,3.252v1.026h1.84v-2.777l-.878-.04a53.992,53.992,0,0,1-16.287-3.3l-.319-.118-.319.117a54,54,0,0,1-16.286,3.3l-.878.041V-316.9h-1.84v-17.484h.211a52.148,52.148,0,0,0,19.113-3.61,52.148,52.148,0,0,0,19.113,3.611h.211v25.919Z" transform="translate(352.361 339.972)"/>
      <rect id="Rectangle_4940" data-name="Rectangle 4940" width="1.84" height="1.84" transform="translate(44.164 13.873)"/>
      <rect id="Rectangle_4941" data-name="Rectangle 4941" width="6.441" height="1.84" transform="translate(3.676 38.718)"/>
    </g>
  </g>
</svg>
