<svg id="Group_3314" data-name="Group 3314" xmlns="http://www.w3.org/2000/svg" xmlns:xlink="http://www.w3.org/1999/xlink" width="61.627" height="61.629" viewBox="0 0 61.627 61.629">
  <defs>
    <clipPath id="clip-path">
      <rect id="Rectangle_5063" data-name="Rectangle 5063" width="61.627" height="61.629" fill="none"/>
    </clipPath>
  </defs>
  <g id="Group_3313" data-name="Group 3313" clip-path="url(#clip-path)">
    <path id="Path_13726" data-name="Path 13726" d="M82.4,218.04c3.935.392,11.142,4.208,8.344,8.108C87.852,230.18,89.177,236.2,82.4,236.2a9.083,9.083,0,0,1-9.083-9.083c0-5.016,4.091-9.581,9.083-9.083" transform="translate(-64.494 -191.762)" fill="#f8d00d"/>
    <path id="Path_13727" data-name="Path 13727" d="M108.619,447.181h5.343c3.1,0,3.1-4.825,0-4.825h-5.343c-3.1,0-3.1,4.825,0,4.825m0-3.02h5.343a.607.607,0,0,1,0,1.214h-5.343a.607.607,0,0,1,0-1.214" transform="translate(-93.5 -389.11)"/>
    <path id="Path_13728" data-name="Path 13728" d="M111.545,255.84l-5.881,5.881-2.037-2.037a.9.9,0,0,0-1.277,1.277l2.675,2.675a.9.9,0,0,0,1.277,0l6.52-6.52A.9.9,0,0,0,111.545,255.84Z" transform="translate(-89.796 -224.81)"/>
    <path id="Path_13729" data-name="Path 13729" d="M60.958,39.938a9.472,9.472,0,0,1-.808-2.223,45.838,45.838,0,0,0-3.975-10.6L53.237,21.5a4.088,4.088,0,0,0-7.5.835,4.087,4.087,0,0,0-5.28,2.766,4.1,4.1,0,0,0-4.878,1.787V3.527A3.531,3.531,0,0,0,32.053,0H11.023a.9.9,0,0,0,0,1.806H32.053a1.724,1.724,0,0,1,1.722,1.722V6.166H1.806V3.527A1.724,1.724,0,0,1,3.527,1.806h2.44A.9.9,0,0,0,5.967,0H3.527A3.531,3.531,0,0,0,0,3.527V58.1a3.531,3.531,0,0,0,3.527,3.527H32.053A3.531,3.531,0,0,0,35.581,58.1V46.964l3.226,1.6a4.086,4.086,0,0,1,1.845,1.849,5.932,5.932,0,0,0,7.992,2.608L54.022,50.2a.9.9,0,0,0-.838-1.6l-5.379,2.818a4.1,4.1,0,0,1-5.534-1.806,5.9,5.9,0,0,0-2.665-2.67L25.917,40.17c-2.571-1.249-.712-5.283,1.9-4.065l4.971,2.617a.909.909,0,0,0,1.22-1.218L25.373,21.022c-1.418-2.666,2.379-5.126,3.828-2.361l6.1,11.65L36.9,33.354a.9.9,0,0,0,1.6-.838l-1.552-2.963a2.252,2.252,0,0,1,3.622-2.323l1.727,3.3a.9.9,0,0,0,1.6-.838l-1.756-3.352a2.265,2.265,0,0,1,3.685-1.895l1.738,3.318a.9.9,0,0,0,1.6-.838L47.421,23.6a2.253,2.253,0,0,1,4.216-1.263l2.938,5.608a44.039,44.039,0,0,1,3.818,10.186,10.751,10.751,0,0,0,.965,2.641,4.07,4.07,0,0,1-1.714,5.487.9.9,0,0,0,.838,1.6A5.877,5.877,0,0,0,60.958,39.938ZM33.775,58.1a1.724,1.724,0,0,1-1.722,1.722H3.527A1.724,1.724,0,0,1,1.806,58.1V51.483h31.97ZM23.212,36.4a4.079,4.079,0,0,0,.3,4.012,7.93,7.93,0,1,1,2.174-6.147A4.122,4.122,0,0,0,23.212,36.4Zm6.555-19.841a4.045,4.045,0,0,0-1.346-.721,4.1,4.1,0,0,0-5.168,4.709H6.115a.3.3,0,0,1-.3-.3V13.794a.3.3,0,0,1,.3-.3H29.466a.3.3,0,0,1,.3.3ZM33.775,23.5l-2.2-4.2v-5.5a2.109,2.109,0,0,0-2.106-2.106H6.115a2.109,2.109,0,0,0-2.106,2.106v6.452a2.109,2.109,0,0,0,2.106,2.106H24.031l7.032,13.421L28.64,34.5l-.033-.016a4.059,4.059,0,0,0-1.116-.346,9.732,9.732,0,1,0-2.65,7.506c2.864,1.651,5.97,2.963,8.933,4.429v3.606H1.806V7.971h31.97Z"/>
  </g>
</svg>
